<svg width="306" height="124" viewBox="0 0 306 124" fill="none" xmlns="http://www.w3.org/2000/svg">
<path d="M17.2111 13.4456C12.9876 13.4456 9.58098 16.8522 9.58098 21.0757C9.58098 25.2991 12.9876 28.7057 17.2111 28.7057C21.4345 28.7057 24.8411 25.2991 24.8411 21.0757C24.8411 16.8522 21.4345 13.4456 17.2111 13.4456ZM17.2111 26.0362C14.4818 26.0362 12.2505 23.8116 12.2505 21.0757C12.2505 18.3397 14.4751 16.1151 17.2111 16.1151C19.947 16.1151 22.1716 18.3397 22.1716 21.0757C22.1716 23.8116 19.9403 26.0362 17.2111 26.0362ZM26.9329 13.1335C26.9329 14.1229 26.1361 14.9132 25.1532 14.9132C24.1638 14.9132 23.3736 14.1163 23.3736 13.1335C23.3736 12.1507 24.1704 11.3538 25.1532 11.3538C26.1361 11.3538 26.9329 12.1507 26.9329 13.1335ZM31.9864 14.9397C31.8736 12.5557 31.329 10.444 29.5825 8.70417C27.8427 6.96433 25.731 6.4198 23.347 6.30027C20.89 6.16082 13.5255 6.16082 11.0685 6.30027C8.69113 6.41316 6.57941 6.95769 4.83293 8.69753C3.08644 10.4374 2.54855 12.5491 2.42902 14.9331C2.28957 17.3901 2.28957 24.7546 2.42902 27.2116C2.54191 29.5956 3.08644 31.7073 4.83293 33.4471C6.57941 35.187 8.68449 35.7315 11.0685 35.851C13.5255 35.9905 20.89 35.9905 23.347 35.851C25.731 35.7382 27.8427 35.1936 29.5825 33.4471C31.3224 31.7073 31.8669 29.5956 31.9864 27.2116C32.1259 24.7546 32.1259 17.3968 31.9864 14.9397ZM28.8122 29.8479C28.2943 31.1495 27.2915 32.1522 25.9833 32.6768C24.0243 33.4538 19.3759 33.2745 17.2111 33.2745C15.0462 33.2745 10.3911 33.4471 8.43879 32.6768C7.13723 32.1589 6.13449 31.1561 5.60988 29.8479C4.83293 27.8889 5.01223 23.2405 5.01223 21.0757C5.01223 18.9108 4.83957 14.2557 5.60988 12.3034C6.12785 11.0018 7.13058 9.9991 8.43879 9.47449C10.3978 8.69753 15.0462 8.87683 17.2111 8.87683C19.3759 8.87683 24.031 8.70417 25.9833 9.47449C27.2849 9.99246 28.2876 10.9952 28.8122 12.3034C29.5892 14.2624 29.4099 18.9108 29.4099 21.0757C29.4099 23.2405 29.5892 27.8956 28.8122 29.8479Z" fill="#2C3E50"/>
<g clip-path="url(#clip0_101_249)">
<text fill="#2C3E50" xml:space="preserve" style="white-space: pre" font-family="Open Sans" font-size="34" font-weight="bold" letter-spacing="0em"><tspan x="53.7412" y="34.2722">tecnokit.store</tspan></text>
</g>
<text fill="#34495E" xml:space="preserve" style="white-space: pre" font-family="Open Sans" font-size="16" letter-spacing="0em"><tspan x="69.9401" y="67.0393">Estamos no instagram</tspan></text>
<text fill="#2C3E50" xml:space="preserve" style="white-space: pre" font-family="Open Sans" font-size="10" font-weight="bold" letter-spacing="1px"><tspan x="125.543" y="109.712">SIGA-NOS</tspan></text>
<rect x="100.364" y="88.3323" width="104.78" height="35" rx="17.5" stroke="#2C3E50"/>
<defs>
<clipPath id="clip0_101_249">
<rect width="263.45" height="42" fill="white" transform="translate(41.8444 0.0822754)"/>
</clipPath>
</defs>
</svg>
