<svg width="1300" height="43" viewBox="0 0 1300 43" fill="none" xmlns="http://www.w3.org/2000/svg">
<rect width="1300" height="43" fill="white"/>
<text opacity="0.6" fill="#34495E" xml:space="preserve" style="white-space: pre" font-family="Open Sans" font-size="14" letter-spacing="0em"><tspan x="15" y="26.9312">In&#xed;cio</tspan></text>
<g opacity="0.6">
<text fill="#34495E" xml:space="preserve" style="white-space: pre" font-family="Open Sans" font-size="14" letter-spacing="0em"><tspan x="56.3401" y="26.9312">&#62;</tspan></text>
<path d="M64.3601 31H56.3401V33H64.3601V31Z" fill="#34495E" fill-opacity="0.1" mask="url(#path-2-inside-1_108_1685)"/>
</g>
<text fill="#34495E" xml:space="preserve" style="white-space: pre" font-family="Open Sans" font-size="14" letter-spacing="0em"><tspan x="71" y="26.9312">Produtos</tspan></text>
<rect x="990" width="295" height="43" rx="10" fill="white"/>
<text fill="#34495E" xml:space="preserve" style="white-space: pre" font-family="Arial" font-size="14" font-weight="bold" letter-spacing="0em"><tspan x="1003" y="26.8535">Mais Vendidos</tspan></text>
<rect x="990.5" y="0.5" width="294" height="42" rx="9.5" stroke="#34495E" stroke-opacity="0.3"/>
<rect width="16.33" height="19.19" transform="translate(1253.67 11.8101)" fill="white"/>
<path d="M1268.12 16.6335L1265.06 13.634C1264.98 13.5526 1264.87 13.5069 1264.75 13.5069C1264.64 13.5069 1264.52 13.5526 1264.44 13.634L1261.38 16.6342C1261.34 16.6746 1261.31 16.7227 1261.29 16.7758C1261.26 16.8288 1261.25 16.8857 1261.25 16.9433C1261.25 17.0009 1261.26 17.0579 1261.28 17.1112C1261.31 17.1645 1261.34 17.2129 1261.38 17.2538L1261.58 17.4608C1261.62 17.5016 1261.67 17.534 1261.72 17.5563C1261.78 17.5786 1261.83 17.5902 1261.89 17.5905C1261.95 17.5908 1262 17.5798 1262.06 17.5581C1262.11 17.5364 1262.16 17.5044 1262.2 17.4641L1264.17 15.5445V29.542C1264.17 29.6194 1264.2 29.6935 1264.25 29.7482C1264.31 29.8029 1264.38 29.8336 1264.46 29.8336H1265.04C1265.12 29.8336 1265.19 29.8029 1265.25 29.7482C1265.3 29.6935 1265.33 29.6194 1265.33 29.542V15.55L1267.3 17.4579C1267.38 17.5393 1267.49 17.585 1267.61 17.585C1267.72 17.585 1267.83 17.5393 1267.92 17.4579L1268.12 17.2516C1268.2 17.1696 1268.25 17.0584 1268.25 16.9425C1268.25 16.8266 1268.2 16.7155 1268.12 16.6335ZM1262.09 25.8815C1262.05 25.8407 1262 25.8082 1261.95 25.786C1261.89 25.7637 1261.84 25.7521 1261.78 25.7518C1261.72 25.7515 1261.67 25.7625 1261.61 25.7842C1261.56 25.8059 1261.51 25.8378 1261.47 25.8782L1259.5 27.7978V13.7977C1259.5 13.7203 1259.47 13.6462 1259.42 13.5915C1259.36 13.5368 1259.29 13.5061 1259.21 13.5061H1258.63C1258.55 13.5061 1258.48 13.5368 1258.42 13.5915C1258.37 13.6462 1258.34 13.7203 1258.34 13.7977V27.7898L1256.37 25.8818C1256.29 25.8004 1256.18 25.7547 1256.06 25.7547C1255.95 25.7547 1255.84 25.8004 1255.75 25.8818L1255.55 26.0881C1255.51 26.1287 1255.48 26.177 1255.45 26.2302C1255.43 26.2833 1255.42 26.3403 1255.42 26.3979C1255.42 26.4555 1255.43 26.5125 1255.45 26.5656C1255.48 26.6188 1255.51 26.6671 1255.55 26.7077L1258.61 29.7071C1258.69 29.7886 1258.8 29.8343 1258.92 29.8343C1259.03 29.8343 1259.15 29.7886 1259.23 29.7071L1262.29 26.707C1262.33 26.6665 1262.36 26.6184 1262.38 26.5654C1262.41 26.5124 1262.42 26.4554 1262.42 26.3979C1262.42 26.3403 1262.41 26.2832 1262.39 26.23C1262.36 26.1767 1262.33 26.1282 1262.29 26.0874L1262.09 25.8815Z" fill="#34495E"/>
</svg>
