<svg width="130" height="124" viewBox="0 0 130 124" fill="none" xmlns="http://www.w3.org/2000/svg">
<path d="M104.383 53.9338L97.4444 41.9361L104.383 29.9283H118.24L125.178 41.9361L118.24 53.9338H104.383Z" fill="#59CBE9"/>
<path d="M104.383 53.9338L97.4444 41.9361L104.383 29.9283H118.24L125.178 41.9361L118.24 53.9338H104.383Z" fill="url(#paint0_linear_6_2798)"/>
<path d="M52.5108 26.7485L46.8726 17.0061L52.5108 7.26367H63.7466L69.3747 17.0061L63.7466 26.7485H52.5108Z" fill="#59CBE9"/>
<path d="M52.5108 26.7485L46.8726 17.0061L52.5108 7.26367H63.7466L69.3747 17.0061L63.7466 26.7485H52.5108Z" fill="url(#paint1_linear_6_2798)"/>
<path d="M120.749 10.2606L117.782 5.13029L120.749 3.05176e-05H126.671L129.638 5.13029L126.671 10.2606H120.749Z" fill="#6BE0FF"/>
<path d="M93.6045 16.9654L88.8502 8.72653L93.6045 0.48764H103.103L107.858 8.72653L103.103 16.9654H93.6045Z" fill="#6BE0FF"/>
<path d="M72.1587 55.9555C72.1587 54.4113 70.9092 53.1618 69.365 53.1618C67.8208 53.1618 66.5713 54.4113 66.5713 55.9555C66.5713 57.4996 67.8208 58.7492 69.365 58.7492C70.9092 58.7492 72.1587 57.4996 72.1587 55.9555Z" fill="url(#paint2_linear_6_2798)"/>
<path d="M80.3165 84.6748L90.4957 101.396L97.2514 103.255L114.308 73.7133L108.213 63.1582H98.247L85.9039 41.7838L90.8919 33.1487L85.7413 24.219H76.1513L69.3448 36.0034H46.924L40.1277 24.219H28.577L18.6822 41.3673L31.6755 61.5429C31.7872 61.5429 31.8888 61.5124 32.0107 61.5124C35.8609 61.5124 38.9899 64.6414 38.9899 68.4916C38.9899 72.3419 35.8609 75.4708 32.0107 75.4708C28.1605 75.4708 25.0315 72.3419 25.0315 68.4916C25.0315 66.8052 25.6614 65.2712 26.6569 64.0623L15.5329 46.8125L-0.00012207 73.7133L14.9945 99.6897L46.4872 78.9756L50.4187 64.6414L51.3432 64.0623C51.3432 64.0623 62.1624 57.3371 62.518 57.1238C62.4469 56.7377 62.3961 56.3517 62.3961 55.9555C62.3961 52.1053 65.5251 48.9763 69.3753 48.9763C73.2255 48.9763 76.3545 52.1053 76.3545 55.9555C76.3545 59.8057 73.2255 62.9347 69.3753 62.9347C67.9429 62.9347 66.6121 62.4979 65.5047 61.7563C65.0882 62.0915 64.6514 62.3759 64.2958 62.5893L55.2239 68.2173L51.2924 82.5313L17.7882 104.525L25.5598 117.996L52.1965 101.153C52.1965 101.041 52.166 100.939 52.166 100.838C52.166 96.9874 55.3052 93.8585 59.1452 93.8585C62.9853 93.8585 66.1244 96.9874 66.1244 100.838C66.1244 104.688 62.9955 107.817 59.1452 107.817C57.4487 107.817 55.9147 107.187 54.7058 106.181L28.3535 122.842L28.5668 123.218H85.7312L94.3663 108.254L86.9096 106.202L86.3306 105.277C86.3306 105.277 75.0541 86.798 74.8408 86.4628C74.4649 86.5237 74.0687 86.5847 73.6725 86.5847C69.8223 86.5847 66.6933 83.4557 66.6933 79.6055C66.6933 75.7553 69.8223 72.6263 73.6725 72.6263C77.5228 72.6263 80.6517 75.7553 80.6517 79.6055C80.6517 81.0379 80.2149 82.3687 79.4733 83.476C79.8085 83.8926 80.093 84.3294 80.3063 84.6748H80.3165Z" fill="url(#paint3_linear_6_2798)"/>
<path d="M61.9384 100.848C61.9384 99.3036 60.6889 98.054 59.1447 98.054C57.6006 98.054 56.351 99.3036 56.351 100.848C56.351 102.392 57.6006 103.641 59.1447 103.641C60.6889 103.641 61.9384 102.392 61.9384 100.848Z" fill="url(#paint4_linear_6_2798)"/>
<path d="M34.7839 68.4813C34.7839 66.9473 33.5343 65.6876 31.9902 65.6876C30.446 65.6876 29.1964 66.9371 29.1964 68.4813C29.1964 70.0254 30.446 71.275 31.9902 71.275C33.5343 71.275 34.7839 70.0254 34.7839 68.4813Z" fill="url(#paint5_linear_6_2798)"/>
<path d="M70.8785 79.6054C70.8785 81.1495 72.1382 82.3991 73.6722 82.3991C75.2062 82.3991 76.466 81.1495 76.466 79.6054C76.466 78.0612 75.2062 76.8116 73.6722 76.8116C72.1382 76.8116 70.8785 78.0612 70.8785 79.6054Z" fill="url(#paint6_linear_6_2798)"/>
<defs>
<linearGradient id="paint0_linear_6_2798" x1="111.311" y1="29.9283" x2="111.311" y2="53.9338" gradientUnits="userSpaceOnUse">
<stop stop-color="#6BE0FF"/>
<stop offset="1" stop-color="#00A3E2" stop-opacity="0.87"/>
</linearGradient>
<linearGradient id="paint1_linear_6_2798" x1="58.1237" y1="7.26367" x2="58.1237" y2="26.7485" gradientUnits="userSpaceOnUse">
<stop stop-color="#6BE0FF"/>
<stop offset="1" stop-color="#00A3E2" stop-opacity="0.53"/>
</linearGradient>
<linearGradient id="paint2_linear_6_2798" x1="69.365" y1="4.40909" x2="69.365" y2="115.273" gradientUnits="userSpaceOnUse">
<stop stop-color="#59CBE9"/>
<stop offset="0.51" stop-color="#00A3E2"/>
<stop offset="1" stop-color="#0072CE"/>
</linearGradient>
<linearGradient id="paint3_linear_6_2798" x1="57.1439" y1="4.41928" x2="57.1439" y2="115.273" gradientUnits="userSpaceOnUse">
<stop stop-color="#59CBE9"/>
<stop offset="0.51" stop-color="#00A3E2"/>
<stop offset="1" stop-color="#0072CE"/>
</linearGradient>
<linearGradient id="paint4_linear_6_2798" x1="59.1447" y1="4.43951" x2="59.1447" y2="115.263" gradientUnits="userSpaceOnUse">
<stop stop-color="#8FFFFF"/>
<stop offset="0.51" stop-color="#60A8FB"/>
<stop offset="1" stop-color="#3762FA"/>
</linearGradient>
<linearGradient id="paint5_linear_6_2798" x1="31.9901" y1="4.40892" x2="31.9901" y2="115.273" gradientUnits="userSpaceOnUse">
<stop stop-color="#8FFFFF"/>
<stop offset="0.51" stop-color="#60A8FB"/>
<stop offset="1" stop-color="#3762FA"/>
</linearGradient>
<linearGradient id="paint6_linear_6_2798" x1="73.6722" y1="4.4293" x2="73.6722" y2="115.263" gradientUnits="userSpaceOnUse">
<stop stop-color="#8FFFFF"/>
<stop offset="0.51" stop-color="#60A8FB"/>
<stop offset="1" stop-color="#3762FA"/>
</linearGradient>
</defs>
</svg>
