<svg width="434" height="2758" viewBox="0 0 434 2758" fill="none" xmlns="http://www.w3.org/2000/svg">
<text opacity="0.6" fill="#34495E" xml:space="preserve" style="white-space: pre" font-family="Open Sans" font-size="14" letter-spacing="0em"><tspan x="15.6602" y="14.9312">In&#xed;cio</tspan></text>
<g opacity="0.6">
<text fill="#34495E" xml:space="preserve" style="white-space: pre" font-family="Open Sans" font-size="14" letter-spacing="0em"><tspan x="57" y="14.9312">&#62;</tspan></text>
<path d="M65.02 19H57V21H65.02V19Z" fill="#34495E" fill-opacity="0.1" mask="url(#path-2-inside-1_121_2013)"/>
</g>
<text opacity="0.6" fill="#34495E" xml:space="preserve" style="white-space: pre" font-family="Open Sans" font-size="14" letter-spacing="0em"><tspan x="71.6602" y="14.9312">Computadores TecnoKit</tspan></text>
<g opacity="0.6">
<text fill="#34495E" xml:space="preserve" style="white-space: pre" font-family="Open Sans" font-size="14" letter-spacing="0em"><tspan x="245.8" y="14.9312">&#62;</tspan></text>
<path d="M253.82 19H245.8V21H253.82V19Z" fill="#34495E" fill-opacity="0.1" mask="url(#path-6-inside-2_121_2013)"/>
</g>
<text opacity="0.6" fill="#34495E" xml:space="preserve" style="white-space: pre" font-family="Open Sans" font-size="14" letter-spacing="0em"><tspan x="260.45" y="14.9312">CPU TecnoKit Level</tspan></text>
<g opacity="0.6">
<text fill="#34495E" xml:space="preserve" style="white-space: pre" font-family="Open Sans" font-size="14" letter-spacing="0em"><tspan x="401.88" y="14.9312">&#62;</tspan></text>
<path d="M409.9 19H401.88V21H409.9V19Z" fill="#34495E" fill-opacity="0.1" mask="url(#path-10-inside-3_121_2013)"/>
</g>
<text fill="#34495E" xml:space="preserve" style="white-space: pre" font-family="Open Sans" font-size="14" letter-spacing="0em"><tspan x="15.6602" y="33.9312">CPU Core i3 4 8 ou 16GB SSD 256gb NVMe Wifi Bluetooth</tspan></text>
<text fill="#34495E" xml:space="preserve" style="white-space: pre" font-family="Open Sans" font-size="14" letter-spacing="0em"><tspan x="15.6602" y="52.9312">teclado e mouse USB Garantia Cod - PCML0004</tspan></text>
<text fill="#34495E" xml:space="preserve" style="white-space: pre" font-family="Open Sans" font-size="34" font-weight="bold" letter-spacing="0em"><tspan x="15.6602" y="103.19">CPU Core i3 4 8 ou 16GB</tspan></text>
<text fill="#34495E" xml:space="preserve" style="white-space: pre" font-family="Open Sans" font-size="34" font-weight="bold" letter-spacing="0em"><tspan x="15.6602" y="149.19">SSD 256gb NVMe Wifi</tspan></text>
<text fill="#34495E" xml:space="preserve" style="white-space: pre" font-family="Open Sans" font-size="34" font-weight="bold" letter-spacing="0em"><tspan x="15.6602" y="195.19">Bluetooth teclado e</tspan></text>
<text fill="#34495E" xml:space="preserve" style="white-space: pre" font-family="Open Sans" font-size="34" font-weight="bold" letter-spacing="0em"><tspan x="15.6602" y="241.19">mouse USB Garantia</tspan></text>
<text fill="#34495E" xml:space="preserve" style="white-space: pre" font-family="Open Sans" font-size="34" font-weight="bold" letter-spacing="0em"><tspan x="15.6602" y="287.19">Cod - PCML0004</tspan></text>
<text fill="#2C3E50" xml:space="preserve" style="white-space: pre" font-family="Open Sans" font-size="28" font-weight="bold" letter-spacing="0em"><tspan x="19.2998" y="346.862">R$872,00</tspan></text>
<g clip-path="url(#clip0_121_2013)">
<path d="M31.8095 395.042H18.1708C16.7843 395.042 15.6602 393.918 15.6602 392.535V383.665C15.6602 382.282 16.7843 381.154 18.1708 381.154H31.8127C33.196 381.154 34.3234 382.278 34.3234 383.665V392.532C34.3202 393.918 33.196 395.042 31.8095 395.042ZM18.1708 382.084C17.2961 382.084 16.5867 382.794 16.5867 383.668V392.535C16.5867 393.41 17.2961 394.119 18.1708 394.119H31.8127C32.6874 394.119 33.3969 393.41 33.3969 392.535V383.665C33.3969 382.79 32.6874 382.081 31.8127 382.081H18.1708V382.084ZM22.7257 391.851C22.7257 391.595 22.5184 391.388 22.2624 391.388H18.8511C18.5952 391.388 18.3879 391.595 18.3879 391.851C18.3879 392.107 18.5952 392.315 18.8511 392.315H22.2624C22.5184 392.315 22.7257 392.107 22.7257 391.851ZM27.5008 391.851C27.5008 391.595 27.2935 391.388 27.0376 391.388H23.6263C23.3704 391.388 23.163 391.595 23.163 391.851C23.163 392.107 23.3704 392.315 23.6263 392.315H27.0376C27.2935 392.315 27.5008 392.107 27.5008 391.851ZM32.2727 391.851C32.2727 391.595 32.0654 391.388 31.8095 391.388H28.4014C28.1455 391.388 27.9382 391.595 27.9382 391.851C27.9382 392.107 28.1455 392.315 28.4014 392.315H31.8127C32.0654 392.315 32.2727 392.107 32.2727 391.851ZM32.2727 384.349C32.2727 384.093 32.0654 383.885 31.8095 383.885H30.4456C30.1897 383.885 29.9824 384.093 29.9824 384.349C29.9824 384.604 30.1897 384.812 30.4456 384.812H31.8095C32.0654 384.812 32.2727 384.604 32.2727 384.349ZM22.2624 388.223H18.8511C18.5952 388.223 18.3879 388.016 18.3879 387.76V384.349C18.3879 384.093 18.5952 383.885 18.8511 383.885H22.2624C22.5184 383.885 22.7257 384.093 22.7257 384.349V387.76C22.7257 388.016 22.5184 388.223 22.2624 388.223ZM19.3144 387.297H21.7992V384.812H19.3144V387.297Z" fill="#3498DB"/>
</g>
<text fill="#3498DB" xml:space="preserve" style="white-space: pre" font-family="Open Sans" font-size="14" font-weight="bold" letter-spacing="0em"><tspan x="42.3105" y="393.161">6</tspan></text>
<text fill="#3498DB" xml:space="preserve" style="white-space: pre" font-family="Open Sans" font-size="14" font-weight="bold" letter-spacing="0em"><tspan x="53.9697" y="393.161">x de </tspan></text>
<text fill="#3498DB" xml:space="preserve" style="white-space: pre" font-family="Open Sans" font-size="14" font-weight="bold" letter-spacing="0em"><tspan x="86.4697" y="393.161">R$145,33</tspan></text>
<text fill="#3498DB" xml:space="preserve" style="white-space: pre" font-family="Open Sans" font-size="14" font-weight="bold" letter-spacing="0em"><tspan x="151.38" y="393.161">sem juros</tspan></text>
<g clip-path="url(#clip1_121_2013)">
<path d="M24.9902 412.015C23.4449 412.015 22.1912 413.475 22.1912 415.28C22.1912 417.082 23.4449 418.546 24.9902 418.546C26.5354 418.546 27.7892 417.085 27.7892 415.28C27.7892 413.475 26.5354 412.015 24.9902 412.015ZM24.9902 417.613C23.9609 417.613 23.1242 416.566 23.1242 415.28C23.1242 413.994 23.9609 412.948 24.9902 412.948C26.0194 412.948 26.8562 413.994 26.8562 415.28C26.8562 416.566 26.0194 417.613 24.9902 417.613ZM33.3872 409.682H16.5932C16.3457 409.682 16.1084 409.78 15.9334 409.955C15.7585 410.13 15.6602 410.368 15.6602 410.615V419.945C15.6602 420.193 15.7585 420.43 15.9334 420.605C16.1084 420.78 16.3457 420.878 16.5932 420.878H33.3872C33.6346 420.878 33.8719 420.78 34.0469 420.605C34.2219 420.43 34.3202 420.193 34.3202 419.945V410.615C34.3202 410.368 34.2219 410.13 34.0469 409.955C33.8719 409.78 33.6346 409.682 33.3872 409.682ZM16.5932 410.615H18.4592C18.4592 411.11 18.2626 411.585 17.9126 411.935C17.5627 412.285 17.0881 412.481 16.5932 412.481V410.615ZM16.5932 419.945V418.079C17.0881 418.079 17.5627 418.276 17.9126 418.626C18.2626 418.976 18.4592 419.45 18.4592 419.945H16.5932ZM33.3872 419.945H31.5212C31.5212 419.45 31.7178 418.976 32.0677 418.626C32.4176 418.276 32.8923 418.079 33.3872 418.079V419.945ZM33.3872 417.146C31.8448 417.146 30.5882 418.403 30.5882 419.945H19.3922C19.3922 418.403 18.1355 417.146 16.5932 417.146V413.414C18.1355 413.414 19.3922 412.157 19.3922 410.615H30.5882C30.5882 412.157 31.8448 413.414 33.3872 413.414V417.146ZM33.3872 412.481C32.8923 412.481 32.4176 412.285 32.0677 411.935C31.7178 411.585 31.5212 411.11 31.5212 410.615H33.3872V412.481Z" fill="#3498DB"/>
</g>
<text fill="#3498DB" xml:space="preserve" style="white-space: pre" font-family="Open Sans" font-size="14" font-weight="bold" letter-spacing="0em"><tspan x="42.3105" y="420.351">5% de desconto</tspan></text>
<text fill="#34495E" xml:space="preserve" style="white-space: pre" font-family="Open Sans" font-size="14" letter-spacing="0em"><tspan x="151.262" y="420.351"> pagando com Pix</tspan></text>
<text fill="#2C3E50" xml:space="preserve" style="white-space: pre" font-family="Open Sans" font-size="12" font-weight="bold" letter-spacing="0em"><tspan x="15.6602" y="449.765">Ver mais detalhes</tspan></text>
<text fill="#34495E" xml:space="preserve" style="white-space: pre" font-family="Open Sans" font-size="12" letter-spacing="0em"><tspan x="15.6602" y="490.765">Turbine seu computador e escolha</tspan></text>
<text fill="#34495E" xml:space="preserve" style="white-space: pre" font-family="Open Sans" font-size="12" letter-spacing="0em"><tspan x="15.6602" y="507.765">entre 4GB 8GB ou 16GB de</tspan></text>
<text fill="#34495E" xml:space="preserve" style="white-space: pre" font-family="Open Sans" font-size="12" letter-spacing="0em"><tspan x="15.6602" y="524.765">Mem&#xf3;ria</tspan></text>
<rect x="15.6602" y="538.61" width="196.67" height="43" rx="10" fill="white"/>
<g clip-path="url(#clip2_121_2013)">
<text fill="#34495E" xml:space="preserve" style="white-space: pre" font-family="Arial" font-size="14" letter-spacing="0em"><tspan x="28.6602" y="565.464">4GB</tspan></text>
</g>
<rect x="16.1602" y="539.11" width="195.67" height="42" rx="9.5" stroke="#34495E" stroke-opacity="0.3"/>
<rect width="16.33" height="19.19" transform="translate(181 550.42)" fill="white"/>
<g clip-path="url(#clip3_121_2013)">
<path d="M197.106 557.047L196.384 556.326C196.213 556.154 195.936 556.154 195.765 556.326L189.165 562.911L182.565 556.326C182.394 556.154 182.117 556.154 181.946 556.326L181.224 557.047C181.053 557.219 181.053 557.496 181.224 557.667L188.855 565.298C189.026 565.47 189.303 565.47 189.475 565.298L197.106 557.667C197.277 557.496 197.277 557.219 197.106 557.047Z" fill="#34495E"/>
</g>
<text fill="#34495E" xml:space="preserve" style="white-space: pre" font-family="Open Sans" font-size="12" letter-spacing="0em"><tspan x="34.6554" y="683.955">100</tspan></text>
<text fill="#34495E" xml:space="preserve" style="white-space: pre" font-family="Open Sans" font-size="12" letter-spacing="0em"><tspan x="55.2431" y="683.955"> em estoque</tspan></text>
<rect x="15.6602" y="609.61" width="127.77" height="45.19" rx="10" fill="white"/>
<g clip-path="url(#clip4_121_2013)">
<path d="M43.0577 631.304H30.2427C29.9208 631.304 29.6602 631.565 29.6602 631.887V633.053C29.6602 633.375 29.9208 633.636 30.2427 633.636H43.0577C43.3795 633.636 43.6402 633.375 43.6402 633.053V631.887C43.6402 631.565 43.3795 631.304 43.0577 631.304Z" fill="#34495E"/>
</g>
<g clip-path="url(#clip5_121_2013)">
<path d="M128.817 631.304H123.575V626.059C123.575 625.737 123.314 625.476 122.992 625.476H121.827C121.506 625.476 121.245 625.737 121.245 626.059V631.304H116.002C115.681 631.304 115.42 631.565 115.42 631.887V633.053C115.42 633.375 115.681 633.636 116.002 633.636H121.245V638.881C121.245 639.203 121.506 639.464 121.827 639.464H122.992C123.314 639.464 123.575 639.203 123.575 638.881V633.636H128.817C129.139 633.636 129.4 633.375 129.4 633.053V631.887C129.4 631.565 129.139 631.304 128.817 631.304Z" fill="#34495E"/>
</g>
<text fill="#34495E" xml:space="preserve" style="white-space: pre" font-family="Open Sans" font-size="14" letter-spacing="0em"><tspan x="75.7222" y="637.631">1</tspan></text>
<rect x="16.1602" y="610.11" width="126.77" height="44.19" rx="9.5" stroke="#34495E" stroke-opacity="0.3"/>
<rect x="153.42" y="609.61" width="270.55" height="49" rx="24.5" fill="#3498DB"/>
<text fill="white" xml:space="preserve" style="white-space: pre" font-family="Open Sans" font-size="14" font-weight="bold" letter-spacing="1px"><tspan x="250.74" y="639.541">COMPRAR</tspan></text>
<g clip-path="url(#clip6_121_2013)">
<path d="M35.3885 725.795H34.6394V722.421C34.6394 721.897 34.4272 721.382 34.0526 721.01L31.4339 718.392C31.0656 718.017 30.5505 717.805 30.0231 717.805H28.6466V716.263C28.6466 715.461 27.9537 714.809 27.1047 714.809H17.204C16.355 714.809 15.6621 715.461 15.6621 716.263V725.339C15.6621 726.142 16.355 726.794 17.204 726.794H17.7097C17.6753 726.956 17.6597 727.122 17.6597 727.293C17.6597 728.673 18.7771 729.79 20.1567 729.79C21.5363 729.79 22.6537 728.673 22.6537 727.293C22.6537 727.122 22.635 726.956 22.6038 726.794H28.6965C28.6622 726.956 28.6466 727.122 28.6466 727.293C28.6466 728.673 29.764 729.79 31.1436 729.79C32.5232 729.79 33.6406 728.673 33.6406 727.293C33.6406 727.122 33.6219 726.956 33.5907 726.794H35.3885C35.5258 726.794 35.6382 726.681 35.6382 726.544V726.045C35.6382 725.907 35.5258 725.795 35.3885 725.795ZM30.0231 718.804C30.2852 718.804 30.5443 718.91 30.7285 719.097L33.3472 721.716C33.3722 721.741 33.3815 721.775 33.4034 721.803H28.6466V718.807H30.0231V718.804ZM20.1567 728.791C19.3296 728.791 18.6585 728.12 18.6585 727.293C18.6585 726.466 19.3296 725.795 20.1567 725.795C20.9839 725.795 21.6549 726.466 21.6549 727.293C21.6549 728.12 20.9839 728.791 20.1567 728.791ZM22.1419 725.795C21.6862 725.193 20.9683 724.796 20.1567 724.796C19.3452 724.796 18.6273 725.193 18.1716 725.795H17.204C16.9044 725.795 16.6609 725.592 16.6609 725.339V716.263C16.6609 716.01 16.9044 715.808 17.204 715.808H27.1047C27.4043 715.808 27.6478 716.01 27.6478 716.263V725.795H22.1419ZM31.1436 728.791C30.3165 728.791 29.6454 728.12 29.6454 727.293C29.6454 726.466 30.3165 725.795 31.1436 725.795C31.9707 725.795 32.6418 726.466 32.6418 727.293C32.6418 728.12 31.9707 728.791 31.1436 728.791ZM31.1436 724.796C30.3289 724.796 29.6142 725.193 29.1585 725.795H28.6466V722.799H33.6406V725.795H33.1287C32.673 725.193 31.9582 724.796 31.1436 724.796Z" fill="#34495E"/>
</g>
<text fill="#34495E" xml:space="preserve" style="white-space: pre" font-family="Open Sans" font-size="12" letter-spacing="0em"><tspan x="46.7705" y="727.235">Meios de envio</tspan></text>
<mask id="path-47-inside-4_121_2013" fill="white">
<path d="M15.6602 749.08C15.6602 743.557 20.1373 739.08 25.6602 739.08H251.77V784.08H25.6602C20.1373 784.08 15.6602 779.603 15.6602 774.08V749.08Z"/>
</mask>
<path d="M15.6602 749.08C15.6602 743.557 20.1373 739.08 25.6602 739.08H251.77V784.08H25.6602C20.1373 784.08 15.6602 779.603 15.6602 774.08V749.08Z" fill="white"/>
<text fill="#34495E" fill-opacity="0.3" xml:space="preserve" style="white-space: pre" font-family="Open Sans" font-size="14" letter-spacing="0em"><tspan x="28.6602" y="767.011">Seu CEP</tspan></text>
<path d="M14.6602 749.08C14.6602 743.005 19.585 738.08 25.6602 738.08H251.77V740.08H25.6602C20.6896 740.08 16.6602 744.11 16.6602 749.08H14.6602ZM251.77 785.08H25.6602C19.585 785.08 14.6602 780.155 14.6602 774.08H16.6602C16.6602 779.051 20.6896 783.08 25.6602 783.08H251.77V785.08ZM25.6602 785.08C19.585 785.08 14.6602 780.155 14.6602 774.08V749.08C14.6602 743.005 19.585 738.08 25.6602 738.08V740.08C20.6896 740.08 16.6602 744.11 16.6602 749.08V774.08C16.6602 779.051 20.6896 783.08 25.6602 783.08V785.08ZM251.77 739.08V784.08V739.08Z" fill="#34495E" fill-opacity="0.3" mask="url(#path-47-inside-4_121_2013)"/>
<text fill="#2C3E50" xml:space="preserve" style="white-space: pre" font-family="Arial" font-size="14" font-weight="bold" letter-spacing="2px"><tspan x="289.628" y="766.934">CALCULAR</tspan></text>
<path d="M252.271 740.58H408.991C414.237 740.58 418.491 744.833 418.491 750.08V773.08C418.491 778.327 414.237 782.58 408.991 782.58H252.271V740.58Z" stroke="#2C3E50"/>
<text fill="#2C3E50" xml:space="preserve" style="white-space: pre" font-family="Open Sans" font-size="12" letter-spacing="0em"><tspan x="15.6602" y="805.235">N&#xe3;o sei meu CEP</tspan></text>
<g clip-path="url(#clip7_121_2013)">
<path d="M35.5045 837.306L32.6516 832.313C32.4737 832.004 32.1429 831.81 31.7839 831.81H19.5173C19.1584 831.81 18.8275 832.004 18.6496 832.313L15.7968 837.306C15.416 837.974 15.8936 838.801 16.6614 838.801H17.6602V846.744C17.6602 847.322 18.1065 847.79 18.659 847.79H26.6494C27.2019 847.79 27.6482 847.322 27.6482 846.744V838.801H32.6423V847.54C32.6423 847.678 32.7546 847.79 32.892 847.79H33.3914C33.5287 847.79 33.6411 847.678 33.6411 847.54V838.801H34.6399C35.4077 838.801 35.8853 837.974 35.5045 837.306ZM26.6494 846.744C26.6494 846.773 26.6401 846.788 26.6432 846.791L18.6777 846.798C18.6777 846.798 18.659 846.782 18.659 846.744V842.796H26.6494V846.744ZM26.6494 841.798H18.659V838.801H26.6494V841.798ZM16.6645 837.803L19.5173 832.809H31.7839L34.6399 837.803H16.6645Z" fill="#34495E"/>
</g>
<text fill="#34495E" xml:space="preserve" style="white-space: pre" font-family="Open Sans" font-size="12" letter-spacing="0em"><tspan x="45.6406" y="843.955">Nossa loja</tspan></text>
<g filter="url(#filter0_d_121_2013)">
<rect x="15.6602" y="863.8" width="403.34" height="74" rx="10" fill="white" fill-opacity="0.01" shape-rendering="crispEdges"/>
<text fill="#34495E" xml:space="preserve" style="white-space: pre" font-family="Open Sans" font-size="12" letter-spacing="0em"><tspan x="35.6602" y="896.955">TecnoKit - Avenida 20 de Setembro 123,</tspan></text>
<text fill="#34495E" xml:space="preserve" style="white-space: pre" font-family="Open Sans" font-size="12" letter-spacing="0em"><tspan x="35.6602" y="913.955"></tspan></text>
<text fill="#2C3E50" xml:space="preserve" style="white-space: pre" font-family="Open Sans" font-size="16" font-weight="bold" letter-spacing="0em"><tspan x="351.01" y="901.007">Gr&#xe1;tis</tspan></text>
</g>
<g clip-path="url(#clip8_121_2013)">
<path d="M30.2207 969.422L24.2282 966.925C24.0456 966.85 23.85 966.811 23.6523 966.811C23.4547 966.811 23.259 966.85 23.0765 966.925L17.084 969.422C16.5253 969.653 16.1602 970.2 16.1602 970.805C16.1602 977 19.7338 981.283 23.0734 982.675C23.4417 982.827 23.8568 982.827 24.2251 982.675C26.8998 981.56 31.1414 977.712 31.1414 970.805C31.1414 970.2 30.7762 969.653 30.2207 969.422ZM23.8443 981.754C23.7194 981.804 23.5821 981.804 23.4604 981.754C20.4048 980.543 17.1589 976.298 17.1589 970.805C17.1589 970.602 17.2806 970.421 17.4648 970.343L23.4573 967.846C23.579 967.796 23.7194 967.796 23.8412 967.846L29.8337 970.343C30.0209 970.421 30.1427 970.602 30.1395 970.805C30.1427 976.298 26.8967 980.543 23.8443 981.754ZM28.0952 971.61C27.9485 971.464 27.7113 971.464 27.5646 971.607L22.4648 976.666L20.3112 974.497C20.1645 974.351 19.9273 974.351 19.7806 974.494L19.5153 974.759C19.3686 974.906 19.3686 975.143 19.5122 975.29L22.1932 977.993C22.3399 978.14 22.5771 978.14 22.7238 977.996L28.3574 972.409C28.5041 972.263 28.5041 972.025 28.3605 971.879L28.0952 971.61Z" fill="#34495E"/>
</g>
<text fill="#34495E" xml:space="preserve" style="white-space: pre" font-family="Open Sans" font-size="12" font-weight="bold" letter-spacing="0em"><tspan x="41.6406" y="978.955">Devolu&#xe7;&#xe3;o gratuita</tspan></text>
<text fill="#34495E" xml:space="preserve" style="white-space: pre" font-family="Open Sans" font-size="12" letter-spacing="0em"><tspan x="41.6406" y="999.955">Se voc&#xea; n&#xe3;o gostou ou n&#xe3;o se convenceu, pode devolver em at&#xe9; 7</tspan></text>
<text fill="#34495E" xml:space="preserve" style="white-space: pre" font-family="Open Sans" font-size="12" letter-spacing="0em"><tspan x="41.6406" y="1016.96">dias ap&#xf3;s a compra</tspan></text>
<defs>
<filter id="filter0_d_121_2013" x="3.66016" y="856.8" width="423.34" height="94" filterUnits="userSpaceOnUse" color-interpolation-filters="sRGB">
<feFlood flood-opacity="0" result="BackgroundImageFix"/>
<feColorMatrix in="SourceAlpha" type="matrix" values="0 0 0 0 0 0 0 0 0 0 0 0 0 0 0 0 0 0 127 0" result="hardAlpha"/>
<feMorphology radius="3" operator="dilate" in="SourceAlpha" result="effect1_dropShadow_121_2013"/>
<feOffset dx="-2" dy="3"/>
<feGaussianBlur stdDeviation="3.5"/>
<feComposite in2="hardAlpha" operator="out"/>
<feColorMatrix type="matrix" values="0 0 0 0 0 0 0 0 0 0 0 0 0 0 0 0 0 0 0.04 0"/>
<feBlend mode="normal" in2="BackgroundImageFix" result="effect1_dropShadow_121_2013"/>
<feBlend mode="normal" in="SourceGraphic" in2="effect1_dropShadow_121_2013" result="shape"/>
</filter>
<clipPath id="clip0_121_2013">
<rect width="18.66" height="18.66" fill="white" transform="translate(15.6602 378.77)"/>
</clipPath>
<clipPath id="clip1_121_2013">
<rect width="18.66" height="18.66" fill="white" transform="translate(15.6602 405.95)"/>
</clipPath>
<clipPath id="clip2_121_2013">
<rect width="147.67" height="16" fill="white" transform="translate(28.6602 552.61)"/>
</clipPath>
<clipPath id="clip3_121_2013">
<rect width="16.33" height="18.66" fill="white" transform="translate(181 550.95)"/>
</clipPath>
<clipPath id="clip4_121_2013">
<rect width="13.98" height="18.66" fill="white" transform="translate(29.6602 623.14)"/>
</clipPath>
<clipPath id="clip5_121_2013">
<rect width="13.98" height="18.66" fill="white" transform="translate(115.42 623.14)"/>
</clipPath>
<clipPath id="clip6_121_2013">
<rect width="19.98" height="15.98" fill="white" transform="translate(15.6602 713.81)"/>
</clipPath>
<clipPath id="clip7_121_2013">
<rect width="19.98" height="15.98" fill="white" transform="translate(15.6602 831.81)"/>
</clipPath>
<clipPath id="clip8_121_2013">
<rect width="15.98" height="15.98" fill="white" transform="translate(15.6602 966.81)"/>
</clipPath>
</defs>
</svg>
