<svg width="836" height="1990" viewBox="0 0 836 1990" fill="none" xmlns="http://www.w3.org/2000/svg">
<rect width="834.66" height="20" transform="translate(1)" fill="white"/>
<text fill="#424A52" xml:space="preserve" style="white-space: pre" font-family="Arial" font-size="14" font-weight="bold" letter-spacing="0em"><tspan x="1" y="14.8535">CPU Core i3 4GB SSD 256GB NVMe Wi-fi TecnoKit&#xa0;</tspan></text>
<rect width="834.66" height="40" transform="translate(1 20)" fill="white"/>
<text fill="#424A52" xml:space="preserve" style="white-space: pre" font-family="Arial" font-size="14" font-weight="bold" letter-spacing="0em"><tspan x="1" y="34.8535">Computador CPU Intel Core i3 &#10;</tspan><tspan x="1" y="54.8535">Fabricante: TecnoKit </tspan></text>
<rect width="834.66" height="20" transform="translate(1 60)" fill="white"/>
<rect width="834.66" height="20" transform="translate(1 80)" fill="white"/>
<text fill="#424A52" xml:space="preserve" style="white-space: pre" font-family="Arial" font-size="14" font-weight="bold" letter-spacing="0em"><tspan x="1" y="94.8535">Teclado/mouse </tspan></text>
<rect width="834.66" height="20" transform="translate(1 100)" fill="white"/>
<rect width="834.66" height="20" transform="translate(1 120)" fill="white"/>
<text fill="#424A52" xml:space="preserve" style="white-space: pre" font-family="Arial" font-size="14" letter-spacing="0em"><tspan x="1" y="134.854">Processador</tspan></text>
<rect width="834.66" height="20" transform="translate(1 140)" fill="white"/>
<text fill="#424A52" xml:space="preserve" style="white-space: pre" font-family="Arial" font-size="14" letter-spacing="0em"><tspan x="1" y="154.854">Modelo: Core I3 3.0 GHZ</tspan></text>
<rect width="834.66" height="20" transform="translate(1 160)" fill="white"/>
<text fill="#424A52" xml:space="preserve" style="white-space: pre" font-family="Arial" font-size="14" letter-spacing="0em"><tspan x="1" y="174.854">N&#xfa;mero de n&#xfa;cleos: 2</tspan></text>
<rect width="834.66" height="20" transform="translate(1 180)" fill="white"/>
<rect width="834.66" height="20" transform="translate(1 200)" fill="white"/>
<rect width="834.66" height="20" transform="translate(1 220)" fill="white"/>
<text fill="#424A52" xml:space="preserve" style="white-space: pre" font-family="Arial" font-size="14" letter-spacing="0em"><tspan x="1" y="234.854">Mem&#xf3;ria RAM 1600 MHz</tspan></text>
<rect width="834.66" height="20" transform="translate(1 240)" fill="white"/>
<rect width="834.66" height="20" transform="translate(1 260)" fill="white"/>
<text fill="#424A52" xml:space="preserve" style="white-space: pre" font-family="Arial" font-size="14" letter-spacing="0em"><tspan x="1" y="274.854">Placa m&#xe3;e</tspan></text>
<rect width="834.66" height="20" transform="translate(1 280)" fill="white"/>
<text fill="#424A52" xml:space="preserve" style="white-space: pre" font-family="Arial" font-size="14" letter-spacing="0em"><tspan x="1" y="294.854">Processadores suportados</tspan></text>
<rect width="834.66" height="20" transform="translate(1 300)" fill="white"/>
<text fill="#424A52" xml:space="preserve" style="white-space: pre" font-family="Arial" font-size="14" letter-spacing="0em"><tspan x="1" y="314.854">Socket: LGA 1155</tspan></text>
<rect width="834.66" height="20" transform="translate(1 320)" fill="white"/>
<text fill="#424A52" xml:space="preserve" style="white-space: pre" font-family="Arial" font-size="14" letter-spacing="0em"><tspan x="1" y="334.854">Suporte: processadores Intel Core I3/ I5 / I7</tspan></text>
<rect width="834.66" height="20" transform="translate(1 340)" fill="white"/>
<text fill="#424A52" xml:space="preserve" style="white-space: pre" font-family="Arial" font-size="14" letter-spacing="0em"><tspan x="1" y="354.854">Chipset: Intel H61</tspan></text>
<rect width="834.66" height="20" transform="translate(1 360)" fill="white"/>
<text fill="#424A52" xml:space="preserve" style="white-space: pre" font-family="Arial" font-size="14" letter-spacing="0em"><tspan x="1" y="374.854">Entradas: 1 VGA e 1 HDMI</tspan></text>
<rect width="834.66" height="20" transform="translate(1 380)" fill="white"/>
<text fill="#424A52" xml:space="preserve" style="white-space: pre" font-family="Arial" font-size="14" letter-spacing="0em"><tspan x="1" y="394.854">Mem&#xf3;ria: Capacidade suportada: 16GB de mem&#xf3;ria</tspan></text>
<rect width="834.66" height="20" transform="translate(1 400)" fill="white"/>
<text fill="#424A52" xml:space="preserve" style="white-space: pre" font-family="Arial" font-size="14" letter-spacing="0em"><tspan x="1" y="414.854">Slots: 2x DDR3</tspan></text>
<rect width="834.66" height="20" transform="translate(1 420)" fill="white"/>
<text fill="#424A52" xml:space="preserve" style="white-space: pre" font-family="Arial" font-size="14" letter-spacing="0em"><tspan x="1" y="434.854">FHz suportada: 1066/1333/1600 MHz</tspan></text>
<rect width="834.66" height="20" transform="translate(1 440)" fill="white"/>
<text fill="#424A52" xml:space="preserve" style="white-space: pre" font-family="Arial" font-size="14" letter-spacing="0em"><tspan x="1" y="454.854">Dual Channel</tspan></text>
<rect width="834.66" height="20" transform="translate(1 460)" fill="white"/>
<text fill="#424A52" xml:space="preserve" style="white-space: pre" font-family="Arial" font-size="14" letter-spacing="0em"><tspan x="1" y="474.854">Slot de expans&#xe3;o</tspan></text>
<rect width="834.66" height="20" transform="translate(1 480)" fill="white"/>
<text fill="#424A52" xml:space="preserve" style="white-space: pre" font-family="Arial" font-size="14" letter-spacing="0em"><tspan x="1" y="494.854">1 slot PCI Express x16</tspan></text>
<rect width="834.66" height="20" transform="translate(1 500)" fill="white"/>
<text fill="#424A52" xml:space="preserve" style="white-space: pre" font-family="Arial" font-size="14" letter-spacing="0em"><tspan x="1" y="514.854">1 slot PCI Express x1</tspan></text>
<rect width="834.66" height="20" transform="translate(1 520)" fill="white"/>
<rect width="834.66" height="20" transform="translate(1 540)" fill="white"/>
<text fill="#424A52" xml:space="preserve" style="white-space: pre" font-family="Arial" font-size="14" letter-spacing="0em"><tspan x="1" y="554.854">&#xc1;udio</tspan></text>
<rect width="834.66" height="20" transform="translate(1 560)" fill="white"/>
<text fill="#424A52" xml:space="preserve" style="white-space: pre" font-family="Arial" font-size="14" letter-spacing="0em"><tspan x="1" y="574.854">Realtek&#xae; ALC662 6Channel Audio CODEC</tspan></text>
<rect width="834.66" height="20" transform="translate(1 580)" fill="white"/>
<rect width="834.66" height="20" transform="translate(1 600)" fill="white"/>
<text fill="#424A52" xml:space="preserve" style="white-space: pre" font-family="Arial" font-size="14" letter-spacing="0em"><tspan x="1" y="614.854">LAN</tspan></text>
<rect width="834.66" height="20" transform="translate(1 620)" fill="white"/>
<text fill="#424A52" xml:space="preserve" style="white-space: pre" font-family="Arial" font-size="14" letter-spacing="0em"><tspan x="1" y="634.854">10/100Mbps</tspan></text>
<rect width="834.66" height="20" transform="translate(1 640)" fill="white"/>
<rect width="834.66" height="20" transform="translate(1 660)" fill="white"/>
<text fill="#424A52" xml:space="preserve" style="white-space: pre" font-family="Arial" font-size="14" letter-spacing="0em"><tspan x="1" y="674.854">Portas USB</tspan></text>
<rect width="834.66" height="20" transform="translate(1 680)" fill="white"/>
<text fill="#424A52" xml:space="preserve" style="white-space: pre" font-family="Arial" font-size="14" letter-spacing="0em"><tspan x="1" y="694.854">6 USB 2.0</tspan></text>
<rect width="834.66" height="20" transform="translate(1 700)" fill="white"/>
<rect width="834.66" height="20" transform="translate(1 720)" fill="white"/>
<text fill="#424A52" xml:space="preserve" style="white-space: pre" font-family="Arial" font-size="14" letter-spacing="0em"><tspan x="1" y="734.854">Painel Interno</tspan></text>
<rect width="834.66" height="20" transform="translate(1 740)" fill="white"/>
<text fill="#424A52" xml:space="preserve" style="white-space: pre" font-family="Arial" font-size="14" letter-spacing="0em"><tspan x="1" y="754.854">1 conector de energia 24 pinos ATX</tspan></text>
<rect width="834.66" height="20" transform="translate(1 760)" fill="white"/>
<text fill="#424A52" xml:space="preserve" style="white-space: pre" font-family="Arial" font-size="14" letter-spacing="0em"><tspan x="1" y="774.854">1 conector de energia 04 pinos ATX 12V</tspan></text>
<rect width="834.66" height="20" transform="translate(1 780)" fill="white"/>
<text fill="#424A52" xml:space="preserve" style="white-space: pre" font-family="Arial" font-size="14" letter-spacing="0em"><tspan x="1" y="794.854">1 conector de &#xe1;udio</tspan></text>
<rect width="834.66" height="20" transform="translate(1 800)" fill="white"/>
<text fill="#424A52" xml:space="preserve" style="white-space: pre" font-family="Arial" font-size="14" letter-spacing="0em"><tspan x="1" y="814.854">1 conector frontal de gabinete</tspan></text>
<rect width="834.66" height="20" transform="translate(1 820)" fill="white"/>
<text fill="#424A52" xml:space="preserve" style="white-space: pre" font-family="Arial" font-size="14" letter-spacing="0em"><tspan x="1" y="834.854">1 conector COM</tspan></text>
<rect width="834.66" height="20" transform="translate(1 840)" fill="white"/>
<text fill="#424A52" xml:space="preserve" style="white-space: pre" font-family="Arial" font-size="14" letter-spacing="0em"><tspan x="1" y="854.854">1 conector de alto falante</tspan></text>
<rect width="834.66" height="20" transform="translate(1 860)" fill="white"/>
<rect width="834.66" height="20" transform="translate(1 880)" fill="white"/>
<text fill="#424A52" xml:space="preserve" style="white-space: pre" font-family="Arial" font-size="14" letter-spacing="0em"><tspan x="1" y="894.854">Portas do painel traseiro</tspan></text>
<rect width="834.66" height="20" transform="translate(1 900)" fill="white"/>
<text fill="#424A52" xml:space="preserve" style="white-space: pre" font-family="Arial" font-size="14" letter-spacing="0em"><tspan x="1" y="914.854">1 HDMI</tspan></text>
<rect width="834.66" height="20" transform="translate(1 920)" fill="white"/>
<text fill="#424A52" xml:space="preserve" style="white-space: pre" font-family="Arial" font-size="14" letter-spacing="0em"><tspan x="1" y="934.854">1 VGA</tspan></text>
<rect width="834.66" height="20" transform="translate(1 940)" fill="white"/>
<text fill="#424A52" xml:space="preserve" style="white-space: pre" font-family="Arial" font-size="14" letter-spacing="0em"><tspan x="1" y="954.854">1 Porta de rede LAN (RJ45)</tspan></text>
<rect width="834.66" height="20" transform="translate(1 960)" fill="white"/>
<text fill="#424A52" xml:space="preserve" style="white-space: pre" font-family="Arial" font-size="14" letter-spacing="0em"><tspan x="1" y="974.854">6 USB 2.0</tspan></text>
<rect width="834.66" height="20" transform="translate(1 980)" fill="white"/>
<text fill="#424A52" xml:space="preserve" style="white-space: pre" font-family="Arial" font-size="14" letter-spacing="0em"><tspan x="1" y="994.854">3 Conectores de Can. de &#xe1;udio</tspan></text>
<rect width="834.66" height="20" transform="translate(1 1000)" fill="white"/>
<rect width="834.66" height="20" transform="translate(1 1020)" fill="white"/>
<text fill="#424A52" xml:space="preserve" style="white-space: pre" font-family="Arial" font-size="14" letter-spacing="0em"><tspan x="1" y="1034.85">Dimens&#xf5;es</tspan></text>
<rect width="834.66" height="20" transform="translate(1 1040)" fill="white"/>
<text fill="#424A52" xml:space="preserve" style="white-space: pre" font-family="Arial" font-size="14" letter-spacing="0em"><tspan x="1" y="1054.85">Tamanho da placa: Micro ATX (17 x 21) cm</tspan></text>
<rect width="834.66" height="20" transform="translate(1 1060)" fill="white"/>
<rect width="834.66" height="20" transform="translate(1 1080)" fill="white"/>
<text fill="#424A52" xml:space="preserve" style="white-space: pre" font-family="Arial" font-size="14" letter-spacing="0em"><tspan x="1" y="1094.85">Armazenamento</tspan></text>
<rect width="834.66" height="20" transform="translate(1 1100)" fill="white"/>
<text fill="#424A52" xml:space="preserve" style="white-space: pre" font-family="Arial" font-size="14" letter-spacing="0em"><tspan x="1" y="1114.85">Solid State Drive - SSD</tspan></text>
<rect width="834.66" height="20" transform="translate(1 1120)" fill="white"/>
<text fill="#424A52" xml:space="preserve" style="white-space: pre" font-family="Arial" font-size="14" letter-spacing="0em"><tspan x="1" y="1134.85">Capacidade: 256GB NVMe</tspan></text>
<rect width="834.66" height="20" transform="translate(1 1140)" fill="white"/>
<text fill="#424A52" xml:space="preserve" style="white-space: pre" font-family="Arial" font-size="14" letter-spacing="0em"><tspan x="1" y="1154.85">Velocidade de leitura: 560Mbps / escrita: 420Mbps</tspan></text>
<rect width="834.66" height="20" transform="translate(1 1160)" fill="white"/>
<text fill="#424A52" xml:space="preserve" style="white-space: pre" font-family="Arial" font-size="14" letter-spacing="0em"><tspan x="1" y="1174.85">Formato: 2.5</tspan></text>
<rect width="834.66" height="20" transform="translate(1 1180)" fill="white"/>
<text fill="#424A52" xml:space="preserve" style="white-space: pre" font-family="Arial" font-size="14" letter-spacing="0em"><tspan x="1" y="1194.85">Interface: SATA 3</tspan></text>
<rect width="834.66" height="20" transform="translate(1 1200)" fill="white"/>
<rect width="834.66" height="20" transform="translate(1 1220)" fill="white"/>
<text fill="#424A52" xml:space="preserve" style="white-space: pre" font-family="Arial" font-size="14" letter-spacing="0em"><tspan x="1" y="1234.85">Fonte de energia</tspan></text>
<rect width="834.66" height="40" transform="translate(1 1240)" fill="white"/>
<text fill="#424A52" xml:space="preserve" style="white-space: pre" font-family="Arial" font-size="14" letter-spacing="0em"><tspan x="1" y="1254.85">Constru&#xed;da com componentes de qualidade, retificadores de cristal semicondutor, transformador el&#xe9;trico, circuitos eletr&#xf4;nicos &#10;</tspan><tspan x="1" y="1274.85">chaveados, semi-circuito de PFC Ativo.</tspan></text>
<rect width="834.66" height="20" transform="translate(1 1280)" fill="white"/>
<text fill="#424A52" xml:space="preserve" style="white-space: pre" font-family="Arial" font-size="14" letter-spacing="0em"><tspan x="1" y="1294.85">Pot&#xea;ncia: 230W nominal</tspan></text>
<rect width="834.66" height="20" transform="translate(1 1300)" fill="white"/>
<text fill="#424A52" xml:space="preserve" style="white-space: pre" font-family="Arial" font-size="14" letter-spacing="0em"><tspan x="1" y="1314.85">Fan cooler: 1 x cm</tspan></text>
<rect width="834.66" height="20" transform="translate(1 1320)" fill="white"/>
<text fill="#424A52" xml:space="preserve" style="white-space: pre" font-family="Arial" font-size="14" letter-spacing="0em"><tspan x="1" y="1334.85">Chave seletor: 110V/230V</tspan></text>
<rect width="834.66" height="20" transform="translate(1 1340)" fill="white"/>
<text fill="#424A52" xml:space="preserve" style="white-space: pre" font-family="Arial" font-size="14" letter-spacing="0em"><tspan x="1" y="1354.85">Conectores de sa&#xed;da 1 ATX 24 pinos (20+4), 1 EPS 12v 4 pinos (12V), 2 IDE (12V, 5V), 2 SATA (12V, 5V)</tspan></text>
<rect width="834.66" height="20" transform="translate(1 1360)" fill="white"/>
<text fill="#424A52" xml:space="preserve" style="white-space: pre" font-family="Arial" font-size="14" letter-spacing="0em"><tspan x="1" y="1374.85">Tens&#xe3;o de entrada AC: 110V/230V (bivolt)</tspan></text>
<rect width="834.66" height="20" transform="translate(1 1380)" fill="white"/>
<text fill="#424A52" xml:space="preserve" style="white-space: pre" font-family="Arial" font-size="14" letter-spacing="0em"><tspan x="1" y="1394.85">FHz de entradas: 50/60H</tspan></text>
<rect width="834.66" height="20" transform="translate(1 1400)" fill="white"/>
<text fill="#424A52" xml:space="preserve" style="white-space: pre" font-family="Arial" font-size="14" letter-spacing="0em"><tspan x="1" y="1414.85">Sa&#xed;da DC: +3.3V, +5V, +12V1, +12V2</tspan></text>
<rect width="834.66" height="20" transform="translate(1 1420)" fill="white"/>
<rect width="834.66" height="20" transform="translate(1 1440)" fill="white"/>
<text fill="#424A52" xml:space="preserve" style="white-space: pre" font-family="Arial" font-size="14" letter-spacing="0em"><tspan x="1" y="1454.85">Teclado</tspan></text>
<rect width="834.66" height="20" transform="translate(1 1460)" fill="white"/>
<text fill="#424A52" xml:space="preserve" style="white-space: pre" font-family="Arial" font-size="14" letter-spacing="0em"><tspan x="1" y="1474.85">N&#xfa;mero de teclas: 107</tspan></text>
<rect width="834.66" height="20" transform="translate(1 1480)" fill="white"/>
<text fill="#424A52" xml:space="preserve" style="white-space: pre" font-family="Arial" font-size="14" letter-spacing="0em"><tspan x="1" y="1494.85">Padr&#xe3;o: ABNT2</tspan></text>
<rect width="834.66" height="20" transform="translate(1 1500)" fill="white"/>
<text fill="#424A52" xml:space="preserve" style="white-space: pre" font-family="Arial" font-size="14" letter-spacing="0em"><tspan x="1" y="1514.85">Comprimento do cabo: 1,3 m</tspan></text>
<rect width="834.66" height="20" transform="translate(1 1520)" fill="white"/>
<text fill="#424A52" xml:space="preserve" style="white-space: pre" font-family="Arial" font-size="14" letter-spacing="0em"><tspan x="1" y="1534.85">Plug &#38; Play</tspan></text>
<rect width="834.66" height="20" transform="translate(1 1540)" fill="white"/>
<text fill="#424A52" xml:space="preserve" style="white-space: pre" font-family="Arial" font-size="14" letter-spacing="0em"><tspan x="1" y="1554.85">Dimens&#xf5;es (AxLxP): 130x440x20mm</tspan></text>
<rect width="834.66" height="20" transform="translate(1 1560)" fill="white"/>
<rect width="834.66" height="20" transform="translate(1 1580)" fill="white"/>
<text fill="#424A52" xml:space="preserve" style="white-space: pre" font-family="Arial" font-size="14" letter-spacing="0em"><tspan x="1" y="1594.85">Sistema operacional: windows 10 trial</tspan></text>
<rect width="834.66" height="60" transform="translate(1 1600)" fill="white"/>
<text fill="#424A52" xml:space="preserve" style="white-space: pre" font-family="Arial" font-size="14" letter-spacing="0em"><tspan x="1" y="1614.85">Este computador vem com o sistema operacional Windows 10 pr&#xe9;-instalado, por&#xe9;m, &#xe9; importante ressaltar que a licen&#xe7;a do sistema &#10;</tspan><tspan x="1" y="1634.85">operacional &#xe9; uma vers&#xe3;o de teste (trial). Isso significa que, ap&#xf3;s um per&#xed;odo de tempo limitado, a vers&#xe3;o de teste expirar&#xe1; e ser&#xe1; &#10;</tspan><tspan x="1" y="1654.85">necess&#xe1;rio adquirir uma licen&#xe7;a completa do Windows 10 para continuar utilizando o sistema operacional.</tspan></text>
<rect width="834.66" height="40" transform="translate(1 1660)" fill="white"/>
<text fill="#424A52" xml:space="preserve" style="white-space: pre" font-family="Arial" font-size="14" letter-spacing="0em"><tspan x="1" y="1674.85">No entanto, durante o per&#xed;odo de teste, voc&#xea; ter&#xe1; acesso a todos os recursos e funcionalidades do Windows 10, permitindo que voc&#xea; &#10;</tspan><tspan x="1" y="1694.85">execute todas as tarefas necess&#xe1;rias para o trabalho, estudo e entretenimento.</tspan></text>
<rect width="834.66" height="40" transform="translate(1 1700)" fill="white"/>
<text fill="#424A52" xml:space="preserve" style="white-space: pre" font-family="Arial" font-size="14" letter-spacing="0em"><tspan x="1" y="1714.85">O Windows 10 &#xe9; um sistema operacional moderno e confi&#xe1;vel, oferecendo uma interface intuitiva e f&#xe1;cil de usar, al&#xe9;m de recursos &#10;</tspan><tspan x="1" y="1734.85">avan&#xe7;ados de seguran&#xe7;a e produtividade.</tspan></text>
<rect width="834.66" height="20" transform="translate(1 1740)" fill="white"/>
<rect width="834.66" height="20" transform="translate(1 1760)" fill="white"/>
<text fill="#424A52" xml:space="preserve" style="white-space: pre" font-family="Arial" font-size="14" letter-spacing="0em"><tspan x="1" y="1774.85">Garantia: 1 ano</tspan></text>
<rect width="834.66" height="20" transform="translate(1 1780)" fill="white"/>
<rect width="834.66" height="40" transform="translate(1 1800)" fill="white"/>
<text fill="#424A52" xml:space="preserve" style="white-space: pre" font-family="Arial" font-size="14" letter-spacing="0em"><tspan x="1" y="1814.85">Todos os materiais dispon&#xed;veis s&#xe3;o para simples refer&#xea;ncia. A TecnoKit reserva o direito de modificar ou revisar o conte&#xfa;do a &#10;</tspan><tspan x="1" y="1834.85">qualquer momento sem aviso pr&#xe9;vio.</tspan></text>
<rect width="834.66" height="20" transform="translate(1 1840)" fill="white"/>
<text fill="#424A52" xml:space="preserve" style="white-space: pre" font-family="Arial" font-size="14" letter-spacing="0em"><tspan x="1" y="1854.85">Todas as marcas e logotipos s&#xe3;o de propriedade de suas respectivas propriet&#xe1;rias.</tspan></text>
<rect width="834.66" height="20" transform="translate(1 1860)" fill="white"/>
<rect width="834.66" height="40" transform="translate(1 1880)" fill="white"/>
<text fill="#424A52" xml:space="preserve" style="white-space: pre" font-family="Arial" font-size="14" letter-spacing="0em"><tspan x="1" y="1894.85">A TecnoKit &#xe9; uma marca de renome quando se trata de computadores e componentes de qualidade. Se voc&#xea; est&#xe1; procurando uma &#10;</tspan><tspan x="1" y="1914.85">empresa confi&#xe1;vel para comprar seus produtos de inform&#xe1;tica, voc&#xea; pode confiar na TecnoKit.</tspan></text>
<path d="M24.4776 1975.44L24.8949 1972.72H22.2973V1970.96C22.2973 1970.22 22.6622 1969.49 23.8238 1969.49H25V1967.19C25 1967.19 23.9318 1967 22.9103 1967C20.768 1967 19.3758 1968.3 19.3758 1970.65V1972.72H17V1975.44H19.3758V1982H22.3003V1975.44H24.4776Z" fill="#2C3E50"/>
<rect x="6.5" y="1960.5" width="29" height="29" rx="14.5" stroke="#2C3E50"/>
<path d="M69.0248 1969H71.1725L66.4815 1974.08L72 1981H67.6801L64.2942 1976.81L60.4246 1981H58.2738L63.2903 1975.56L58 1969H62.4294L65.4867 1972.83L69.0248 1969ZM68.2703 1979.78H69.4598L61.7814 1970.15H60.5037L68.2703 1979.78Z" fill="#2C3E50"/>
<rect x="50.1396" y="1960.5" width="29" height="29" rx="14.5" stroke="#2C3E50"/>
<path d="M107.844 1967C104.905 1967 102 1969.06 102 1972.38C102 1974.5 103.134 1975.7 103.822 1975.7C104.105 1975.7 104.269 1974.87 104.269 1974.64C104.269 1974.36 103.59 1973.76 103.59 1972.6C103.59 1970.18 105.343 1968.47 107.612 1968.47C109.562 1968.47 111.006 1969.63 111.006 1971.77C111.006 1973.37 110.396 1976.36 108.42 1976.36C107.706 1976.36 107.096 1975.82 107.096 1975.04C107.096 1973.91 107.852 1972.81 107.852 1971.63C107.852 1969.64 105.163 1970.01 105.163 1972.41C105.163 1972.91 105.223 1973.47 105.438 1973.93C105.042 1975.72 104.234 1978.38 104.234 1980.22C104.234 1980.79 104.312 1981.34 104.363 1981.91C104.461 1982.03 104.412 1982.01 104.561 1981.96C106.005 1979.88 105.953 1979.48 106.606 1976.76C106.959 1977.47 107.87 1977.85 108.591 1977.85C111.634 1977.85 113 1974.74 113 1971.93C113 1968.95 110.542 1967 107.844 1967Z" fill="#2C3E50"/>
<rect x="93.7803" y="1960.5" width="29" height="29" rx="14.5" stroke="#2C3E50"/>
</svg>
