<svg width="71" height="48" viewBox="0 0 71 48" fill="none" xmlns="http://www.w3.org/2000/svg">
<g clip-path="url(#clip0_80_245)">
<path d="M35.1144 14.0222C38.6344 14.0222 41.5144 11.1422 41.5144 7.62217C41.5144 4.10217 38.6344 1.22217 35.1144 1.22217C31.5944 1.22217 28.7144 4.10217 28.7144 7.62217C28.7144 11.1422 31.5944 14.0222 35.1144 14.0222ZM35.1144 1.94217C38.2344 1.94217 40.7144 4.50217 40.7144 7.54217C40.7144 10.5822 38.2344 13.1422 35.1144 13.1422C31.9944 13.1422 29.5144 10.5822 29.5144 7.54217C29.5144 4.50217 31.9944 1.94217 35.1144 1.94217ZM46.7144 23.9422C46.7144 24.1822 46.5544 24.3422 46.3144 24.3422C46.0744 24.3422 45.9144 24.1822 45.9144 23.9422C45.9144 20.1022 41.0344 16.9822 35.1144 16.9822C29.1944 16.9822 24.3144 20.1022 24.3144 23.9422C24.3144 24.1822 24.1544 24.3422 23.9144 24.3422C23.6744 24.3422 23.5144 24.1822 23.5144 23.9422C23.5144 19.7022 28.7144 16.1822 35.1144 16.1822C41.5144 16.1822 46.7144 19.7022 46.7144 23.9422Z" fill="#2C3E50"/>
</g>
<path d="M5.39775 43.7422L2.52079 36.1602H2.47392C2.48954 36.3203 2.50322 36.5156 2.51493 36.7461C2.52665 36.9766 2.53642 37.2285 2.54423 37.502C2.55204 37.7715 2.55595 38.0469 2.55595 38.3281V43.7422H1.63017V35.1758H3.10673L5.81962 42.3008H5.86064L8.61454 35.1758H10.0794V43.7422H9.09501V38.2578C9.09501 38.0039 9.09892 37.75 9.10673 37.4961C9.11454 37.2383 9.12431 36.9961 9.13603 36.7695C9.14775 36.5391 9.15947 36.3398 9.17118 36.1719H9.12431L6.2122 43.7422H5.39775ZM13.2493 37.3203V43.7422H12.2767V37.3203H13.2493ZM12.7747 34.918C12.9349 34.918 13.0716 34.9707 13.1849 35.0762C13.302 35.1777 13.3606 35.3379 13.3606 35.5566C13.3606 35.7715 13.302 35.9316 13.1849 36.0371C13.0716 36.1426 12.9349 36.1953 12.7747 36.1953C12.6067 36.1953 12.4661 36.1426 12.3528 36.0371C12.2435 35.9316 12.1888 35.7715 12.1888 35.5566C12.1888 35.3379 12.2435 35.1777 12.3528 35.0762C12.4661 34.9707 12.6067 34.918 12.7747 34.918ZM18.3528 37.2031C19.1145 37.2031 19.6907 37.3906 20.0813 37.7656C20.472 38.1367 20.6673 38.7344 20.6673 39.5586V43.7422H19.7063V39.623C19.7063 39.0879 19.5833 38.6875 19.3372 38.4219C19.095 38.1562 18.722 38.0234 18.2181 38.0234C17.5071 38.0234 17.0071 38.2246 16.7181 38.627C16.429 39.0293 16.2845 39.6133 16.2845 40.3789V43.7422H15.3118V37.3203H16.097L16.2435 38.2461H16.2962C16.4329 38.0195 16.6067 37.8301 16.8177 37.6777C17.0286 37.5215 17.2649 37.4043 17.5267 37.3262C17.7884 37.2441 18.0638 37.2031 18.3528 37.2031ZM23.6438 34.625V37.3496C23.6438 37.5059 23.6399 37.6641 23.6321 37.8242C23.6243 37.9805 23.6106 38.125 23.5911 38.2578H23.6556C23.7884 38.0312 23.9563 37.8418 24.1595 37.6895C24.3665 37.5332 24.6009 37.416 24.8626 37.3379C25.1243 37.2559 25.4017 37.2148 25.6946 37.2148C26.2102 37.2148 26.6399 37.2969 26.9837 37.4609C27.3313 37.625 27.5911 37.8789 27.763 38.2227C27.9388 38.5664 28.0267 39.0117 28.0267 39.5586V43.7422H27.0657V39.623C27.0657 39.0879 26.9427 38.6875 26.6966 38.4219C26.4544 38.1562 26.0813 38.0234 25.5774 38.0234C25.1009 38.0234 24.72 38.1152 24.4349 38.2988C24.1536 38.4785 23.9505 38.7441 23.8255 39.0957C23.7044 39.4473 23.6438 39.877 23.6438 40.3848V43.7422H22.6712V34.625H23.6438ZM32.4329 37.2148C33.1985 37.2148 33.7669 37.3867 34.138 37.7305C34.5091 38.0742 34.6946 38.623 34.6946 39.377V43.7422H33.9856L33.7981 42.793H33.7513C33.5716 43.0273 33.3841 43.2246 33.1888 43.3848C32.9935 43.541 32.7669 43.6602 32.5091 43.7422C32.2552 43.8203 31.9427 43.8594 31.5716 43.8594C31.181 43.8594 30.8333 43.791 30.5286 43.6543C30.2278 43.5176 29.9895 43.3105 29.8138 43.0332C29.6419 42.7559 29.556 42.4043 29.556 41.9785C29.556 41.3379 29.8099 40.8457 30.3177 40.502C30.8255 40.1582 31.5989 39.9707 32.638 39.9395L33.7454 39.8926V39.5C33.7454 38.9453 33.6263 38.5566 33.388 38.334C33.1497 38.1113 32.8138 38 32.3802 38C32.0442 38 31.7239 38.0488 31.4192 38.1465C31.1145 38.2441 30.8255 38.3594 30.552 38.4922L30.2532 37.7539C30.5423 37.6055 30.8743 37.4785 31.2493 37.373C31.6243 37.2676 32.0188 37.2148 32.4329 37.2148ZM33.7337 40.5781L32.7552 40.6191C31.9544 40.6504 31.3899 40.7812 31.0618 41.0117C30.7337 41.2422 30.5696 41.5684 30.5696 41.9902C30.5696 42.3574 30.681 42.6289 30.9036 42.8047C31.1263 42.9805 31.4212 43.0684 31.7884 43.0684C32.3587 43.0684 32.8255 42.9102 33.1888 42.5938C33.552 42.2773 33.7337 41.8027 33.7337 41.1699V40.5781ZM42.388 43.8594C41.8099 43.8594 41.3001 43.7402 40.8587 43.502C40.4173 43.2637 40.0735 42.9004 39.8274 42.4121C39.5813 41.9238 39.4583 41.3086 39.4583 40.5664C39.4583 39.7891 39.5872 39.1543 39.845 38.6621C40.1067 38.166 40.4661 37.7988 40.9231 37.5605C41.3802 37.3223 41.8997 37.2031 42.4817 37.2031C42.802 37.2031 43.1106 37.2363 43.4075 37.3027C43.7083 37.3652 43.9544 37.4453 44.1458 37.543L43.8528 38.3574C43.6575 38.2793 43.431 38.209 43.1731 38.1465C42.9192 38.084 42.681 38.0527 42.4583 38.0527C42.013 38.0527 41.6419 38.1484 41.345 38.3398C41.052 38.5312 40.8313 38.8125 40.6829 39.1836C40.5384 39.5547 40.4661 40.0117 40.4661 40.5547C40.4661 41.0742 40.5364 41.5176 40.677 41.8848C40.8216 42.252 41.0345 42.5332 41.3157 42.7285C41.6009 42.9199 41.9563 43.0156 42.3821 43.0156C42.722 43.0156 43.0286 42.9805 43.302 42.9102C43.5755 42.8359 43.8235 42.75 44.0462 42.6523V43.5195C43.8313 43.6289 43.5911 43.7129 43.3255 43.7715C43.0638 43.8301 42.7513 43.8594 42.388 43.8594ZM51.1067 40.5195C51.1067 41.0469 51.0384 41.5176 50.9017 41.9316C50.7649 42.3457 50.5677 42.6953 50.3099 42.9805C50.052 43.2656 49.7395 43.4844 49.3724 43.6367C49.0091 43.7852 48.597 43.8594 48.136 43.8594C47.7063 43.8594 47.3118 43.7852 46.9524 43.6367C46.597 43.4844 46.2884 43.2656 46.0267 42.9805C45.7688 42.6953 45.5677 42.3457 45.4231 41.9316C45.2825 41.5176 45.2122 41.0469 45.2122 40.5195C45.2122 39.8164 45.3313 39.2188 45.5696 38.7266C45.8079 38.2305 46.1477 37.8535 46.5892 37.5957C47.0345 37.334 47.5638 37.2031 48.177 37.2031C48.763 37.2031 49.2747 37.334 49.7122 37.5957C50.1536 37.8574 50.4954 38.2363 50.7376 38.7324C50.9837 39.2246 51.1067 39.8203 51.1067 40.5195ZM46.22 40.5195C46.22 41.0352 46.2884 41.4824 46.4251 41.8613C46.5618 42.2402 46.7727 42.5332 47.0579 42.7402C47.3431 42.9473 47.7102 43.0508 48.1595 43.0508C48.6048 43.0508 48.97 42.9473 49.2552 42.7402C49.5442 42.5332 49.7571 42.2402 49.8938 41.8613C50.0306 41.4824 50.0989 41.0352 50.0989 40.5195C50.0989 40.0078 50.0306 39.5664 49.8938 39.1953C49.7571 38.8203 49.5462 38.5312 49.261 38.3281C48.9759 38.125 48.6067 38.0234 48.1536 38.0234C47.4856 38.0234 46.9954 38.2441 46.6829 38.6855C46.3743 39.127 46.22 39.7383 46.22 40.5195ZM55.8294 37.2031C56.5911 37.2031 57.1673 37.3906 57.5579 37.7656C57.9485 38.1367 58.1438 38.7344 58.1438 39.5586V43.7422H57.1829V39.623C57.1829 39.0879 57.0599 38.6875 56.8138 38.4219C56.5716 38.1562 56.1985 38.0234 55.6946 38.0234C54.9837 38.0234 54.4837 38.2246 54.1946 38.627C53.9056 39.0293 53.761 39.6133 53.761 40.3789V43.7422H52.7884V37.3203H53.5735L53.72 38.2461H53.7727C53.9095 38.0195 54.0833 37.8301 54.2942 37.6777C54.5052 37.5215 54.7415 37.4043 55.0032 37.3262C55.2649 37.2441 55.5403 37.2031 55.8294 37.2031ZM62.222 43.0625C62.3821 43.0625 62.5462 43.0488 62.7142 43.0215C62.8821 42.9941 63.0188 42.9609 63.1243 42.9219V43.6777C63.011 43.7285 62.8528 43.7715 62.6497 43.8066C62.4505 43.8418 62.2552 43.8594 62.0638 43.8594C61.7239 43.8594 61.4153 43.8008 61.138 43.6836C60.8606 43.5625 60.638 43.3594 60.47 43.0742C60.306 42.7891 60.2239 42.3945 60.2239 41.8906V38.082H59.3099V37.6074L60.2298 37.2266L60.6165 35.832H61.2024V37.3203H63.0833V38.082H61.2024V41.8613C61.2024 42.2637 61.2942 42.5645 61.4778 42.7637C61.6653 42.9629 61.9134 43.0625 62.222 43.0625ZM66.8274 37.2148C67.5931 37.2148 68.1614 37.3867 68.5325 37.7305C68.9036 38.0742 69.0892 38.623 69.0892 39.377V43.7422H68.3802L68.1927 42.793H68.1458C67.9661 43.0273 67.7786 43.2246 67.5833 43.3848C67.388 43.541 67.1614 43.6602 66.9036 43.7422C66.6497 43.8203 66.3372 43.8594 65.9661 43.8594C65.5755 43.8594 65.2278 43.791 64.9231 43.6543C64.6224 43.5176 64.3841 43.3105 64.2083 43.0332C64.0364 42.7559 63.9505 42.4043 63.9505 41.9785C63.9505 41.3379 64.2044 40.8457 64.7122 40.502C65.22 40.1582 65.9935 39.9707 67.0325 39.9395L68.1399 39.8926V39.5C68.1399 38.9453 68.0208 38.5566 67.7825 38.334C67.5442 38.1113 67.2083 38 66.7747 38C66.4388 38 66.1185 38.0488 65.8138 38.1465C65.5091 38.2441 65.22 38.3594 64.9466 38.4922L64.6477 37.7539C64.9368 37.6055 65.2688 37.4785 65.6438 37.373C66.0188 37.2676 66.4134 37.2148 66.8274 37.2148ZM68.1282 40.5781L67.1497 40.6191C66.3489 40.6504 65.7845 40.7812 65.4563 41.0117C65.1282 41.2422 64.9642 41.5684 64.9642 41.9902C64.9642 42.3574 65.0755 42.6289 65.2981 42.8047C65.5208 42.9805 65.8157 43.0684 66.1829 43.0684C66.7532 43.0684 67.22 42.9102 67.5833 42.5938C67.9466 42.2773 68.1282 41.8027 68.1282 41.1699V40.5781Z" fill="#2C3E50"/>
<defs>
<clipPath id="clip0_80_245">
<rect width="27" height="24" fill="white" transform="translate(21.6144 0.742188)"/>
</clipPath>
</defs>
</svg>
