<svg width="76" height="53" viewBox="0 0 76 53" fill="none" xmlns="http://www.w3.org/2000/svg">
<g clip-path="url(#clip0_80_246)">
<path d="M48.6455 19.6828L51.0217 9.38575L50.9425 9.06892L50.6257 8.9105H29.4771L28.8435 6.05902C28.7643 5.9006 28.6059 5.74219 28.4474 5.74219H24.487C24.2494 5.74219 24.091 5.9006 24.091 6.13823C24.091 6.37585 24.2494 6.53427 24.487 6.53427H28.1306L32.0118 24.4353L32.1702 24.6729C31.6158 25.1481 31.2197 25.9402 31.2197 26.7323C31.2197 28.2372 32.487 29.5046 33.992 29.5046C35.4969 29.5046 36.7643 28.2372 36.7643 26.7323C36.7643 25.9402 36.4474 25.2273 35.893 24.7521H43.893C43.3385 25.2273 43.0217 25.9402 43.0217 26.7323C43.0217 28.2372 44.289 29.5046 45.794 29.5046C47.2989 29.5046 48.5662 28.2372 48.5662 26.7323C48.5662 25.2273 47.3781 23.96 45.8732 23.96H32.7247L31.8534 19.9996H48.2494C48.4078 19.9996 48.5663 19.8412 48.6455 19.6828ZM47.8534 26.7323C47.8534 27.8412 46.9821 28.7125 45.8732 28.7125C44.7643 28.7125 43.893 27.8412 43.893 26.7323C43.893 25.6234 44.7643 24.7521 45.8732 24.7521C46.9821 24.7521 47.8534 25.6234 47.8534 26.7323ZM35.9722 26.7323C35.9722 27.8412 35.1009 28.7125 33.992 28.7125C32.8831 28.7125 32.0118 27.8412 32.0118 26.7323C32.0118 25.6234 32.8831 24.7521 33.992 24.7521C35.1009 24.7521 35.9722 25.6234 35.9722 26.7323ZM31.695 19.2075L29.6356 9.70258H50.1504L47.9326 19.2075H31.695Z" fill="#2C3E50"/>
</g>
<path d="M5.2305 48.7422L2.35355 41.1602H2.30667C2.3223 41.3203 2.33597 41.5156 2.34769 41.7461C2.35941 41.9766 2.36917 42.2285 2.37699 42.502C2.3848 42.7715 2.38871 43.0469 2.38871 43.3281V48.7422H1.46292V40.1758H2.93949L5.65238 47.3008H5.69339L8.4473 40.1758H9.91214V48.7422H8.92777V43.2578C8.92777 43.0039 8.93167 42.75 8.93949 42.4961C8.9473 42.2383 8.95707 41.9961 8.96878 41.7695C8.9805 41.5391 8.99222 41.3398 9.00394 41.1719H8.95707L6.04496 48.7422H5.2305ZM14.5821 42.2031C15.1289 42.2031 15.5977 42.3242 15.9883 42.5664C16.3789 42.8086 16.6778 43.1484 16.8848 43.5859C17.0918 44.0195 17.1953 44.5273 17.1953 45.1094V45.7129H12.7598C12.7715 46.4668 12.959 47.041 13.3223 47.4355C13.6856 47.8301 14.1973 48.0273 14.8575 48.0273C15.2637 48.0273 15.6231 47.9902 15.9356 47.916C16.2481 47.8418 16.5723 47.7324 16.9082 47.5879V48.4434C16.584 48.5879 16.2618 48.6934 15.9414 48.7598C15.625 48.8262 15.25 48.8594 14.8164 48.8594C14.1993 48.8594 13.6602 48.7344 13.1993 48.4844C12.7422 48.2305 12.3868 47.8594 12.1328 47.3711C11.8789 46.8828 11.752 46.2852 11.752 45.5781C11.752 44.8867 11.8672 44.2891 12.0977 43.7852C12.3321 43.2773 12.6602 42.8867 13.0821 42.6133C13.5078 42.3398 14.0078 42.2031 14.5821 42.2031ZM14.5703 43C14.0508 43 13.6368 43.1699 13.3282 43.5098C13.0196 43.8496 12.836 44.3242 12.7774 44.9336H16.1758C16.1719 44.5508 16.1114 44.2148 15.9942 43.9258C15.8809 43.6328 15.7071 43.4062 15.4727 43.2461C15.2383 43.082 14.9375 43 14.5703 43ZM24.1504 42.3203V48.7422H23.3535L23.2129 47.8398H23.1602C23.0274 48.0625 22.8555 48.25 22.6446 48.4023C22.4336 48.5547 22.1953 48.668 21.9297 48.7422C21.668 48.8203 21.3887 48.8594 21.0918 48.8594C20.584 48.8594 20.1582 48.7773 19.8145 48.6133C19.4707 48.4492 19.211 48.1953 19.0352 47.8516C18.8633 47.5078 18.7774 47.0664 18.7774 46.5273V42.3203H19.7618V46.457C19.7618 46.9922 19.8828 47.3926 20.125 47.6582C20.3672 47.9199 20.7364 48.0508 21.2325 48.0508C21.709 48.0508 22.0879 47.9609 22.3692 47.7812C22.6543 47.6016 22.8594 47.3379 22.9844 46.9902C23.1094 46.6387 23.1719 46.209 23.1719 45.7012V42.3203H24.1504ZM31.8965 48.8594C31.3184 48.8594 30.8086 48.7402 30.3672 48.502C29.9258 48.2637 29.5821 47.9004 29.336 47.4121C29.0899 46.9238 28.9668 46.3086 28.9668 45.5664C28.9668 44.7891 29.0957 44.1543 29.3535 43.6621C29.6153 43.166 29.9746 42.7988 30.4317 42.5605C30.8887 42.3223 31.4082 42.2031 31.9903 42.2031C32.3106 42.2031 32.6192 42.2363 32.916 42.3027C33.2168 42.3652 33.4629 42.4453 33.6543 42.543L33.3614 43.3574C33.166 43.2793 32.9395 43.209 32.6817 43.1465C32.4278 43.084 32.1895 43.0527 31.9668 43.0527C31.5215 43.0527 31.1504 43.1484 30.8535 43.3398C30.5606 43.5312 30.3399 43.8125 30.1914 44.1836C30.0469 44.5547 29.9746 45.0117 29.9746 45.5547C29.9746 46.0742 30.045 46.5176 30.1856 46.8848C30.3301 47.252 30.543 47.5332 30.8243 47.7285C31.1094 47.9199 31.4649 48.0156 31.8907 48.0156C32.2305 48.0156 32.5371 47.9805 32.8106 47.9102C33.084 47.8359 33.3321 47.75 33.5547 47.6523V48.5195C33.3399 48.6289 33.0996 48.7129 32.834 48.7715C32.5723 48.8301 32.2598 48.8594 31.8965 48.8594ZM37.4805 42.2148C38.2461 42.2148 38.8145 42.3867 39.1856 42.7305C39.5567 43.0742 39.7422 43.623 39.7422 44.377V48.7422H39.0332L38.8457 47.793H38.7989C38.6192 48.0273 38.4317 48.2246 38.2364 48.3848C38.041 48.541 37.8145 48.6602 37.5567 48.7422C37.3028 48.8203 36.9903 48.8594 36.6192 48.8594C36.2285 48.8594 35.8809 48.791 35.5762 48.6543C35.2754 48.5176 35.0371 48.3105 34.8614 48.0332C34.6895 47.7559 34.6035 47.4043 34.6035 46.9785C34.6035 46.3379 34.8575 45.8457 35.3653 45.502C35.8731 45.1582 36.6465 44.9707 37.6856 44.9395L38.793 44.8926V44.5C38.793 43.9453 38.6739 43.5566 38.4356 43.334C38.1973 43.1113 37.8614 43 37.4278 43C37.0918 43 36.7715 43.0488 36.4668 43.1465C36.1621 43.2441 35.8731 43.3594 35.5996 43.4922L35.3008 42.7539C35.5899 42.6055 35.9219 42.4785 36.2969 42.373C36.6719 42.2676 37.0664 42.2148 37.4805 42.2148ZM38.7813 45.5781L37.8028 45.6191C37.002 45.6504 36.4375 45.7812 36.1094 46.0117C35.7813 46.2422 35.6172 46.5684 35.6172 46.9902C35.6172 47.3574 35.7285 47.6289 35.9512 47.8047C36.1739 47.9805 36.4688 48.0684 36.836 48.0684C37.4063 48.0684 37.8731 47.9102 38.2364 47.5938C38.5996 47.2773 38.7813 46.8027 38.7813 46.1699V45.5781ZM44.6641 42.2031C44.793 42.2031 44.9278 42.2109 45.0684 42.2266C45.209 42.2383 45.334 42.2559 45.4434 42.2793L45.3203 43.1816C45.2149 43.1543 45.0977 43.1328 44.9688 43.1172C44.8399 43.1016 44.7188 43.0938 44.6055 43.0938C44.3477 43.0938 44.1035 43.1465 43.8731 43.252C43.6465 43.3535 43.4473 43.502 43.2754 43.6973C43.1035 43.8887 42.9688 44.1211 42.8711 44.3945C42.7735 44.6641 42.7246 44.9648 42.7246 45.2969V48.7422H41.7461V42.3203H42.5547L42.6602 43.5039H42.7012C42.834 43.2656 42.9942 43.0488 43.1817 42.8535C43.3692 42.6543 43.586 42.4961 43.8321 42.3789C44.0821 42.2617 44.3594 42.2031 44.6641 42.2031ZM49.5743 42.2031C49.7032 42.2031 49.8379 42.2109 49.9785 42.2266C50.1192 42.2383 50.2442 42.2559 50.3535 42.2793L50.2305 43.1816C50.125 43.1543 50.0078 43.1328 49.8789 43.1172C49.75 43.1016 49.6289 43.0938 49.5157 43.0938C49.2578 43.0938 49.0137 43.1465 48.7832 43.252C48.5567 43.3535 48.3575 43.502 48.1856 43.6973C48.0137 43.8887 47.8789 44.1211 47.7813 44.3945C47.6836 44.6641 47.6348 44.9648 47.6348 45.2969V48.7422H46.6563V42.3203H47.4649L47.5703 43.5039H47.6114C47.7442 43.2656 47.9043 43.0488 48.0918 42.8535C48.2793 42.6543 48.4961 42.4961 48.7422 42.3789C48.9922 42.2617 49.2696 42.2031 49.5743 42.2031ZM52.5391 42.3203V48.7422H51.5664V42.3203H52.5391ZM52.0645 39.918C52.2246 39.918 52.3614 39.9707 52.4746 40.0762C52.5918 40.1777 52.6504 40.3379 52.6504 40.5566C52.6504 40.7715 52.5918 40.9316 52.4746 41.0371C52.3614 41.1426 52.2246 41.1953 52.0645 41.1953C51.8965 41.1953 51.7559 41.1426 51.6426 41.0371C51.5332 40.9316 51.4785 40.7715 51.4785 40.5566C51.4785 40.3379 51.5332 40.1777 51.6426 40.0762C51.7559 39.9707 51.8965 39.918 52.0645 39.918ZM57.6426 42.2031C58.4043 42.2031 58.9805 42.3906 59.3711 42.7656C59.7618 43.1367 59.9571 43.7344 59.9571 44.5586V48.7422H58.9961V44.623C58.9961 44.0879 58.8731 43.6875 58.627 43.4219C58.3848 43.1562 58.0118 43.0234 57.5078 43.0234C56.7969 43.0234 56.2969 43.2246 56.0078 43.627C55.7188 44.0293 55.5743 44.6133 55.5743 45.3789V48.7422H54.6016V42.3203H55.3868L55.5332 43.2461H55.586C55.7227 43.0195 55.8965 42.8301 56.1075 42.6777C56.3184 42.5215 56.5547 42.4043 56.8164 42.3262C57.0782 42.2441 57.3535 42.2031 57.6426 42.2031ZM62.9336 39.625V42.3496C62.9336 42.5059 62.9297 42.6641 62.9219 42.8242C62.9141 42.9805 62.9004 43.125 62.8809 43.2578H62.9453C63.0782 43.0312 63.2461 42.8418 63.4493 42.6895C63.6563 42.5332 63.8907 42.416 64.1524 42.3379C64.4141 42.2559 64.6914 42.2148 64.9844 42.2148C65.5 42.2148 65.9297 42.2969 66.2735 42.4609C66.6211 42.625 66.8809 42.8789 67.0528 43.2227C67.2285 43.5664 67.3164 44.0117 67.3164 44.5586V48.7422H66.3555V44.623C66.3555 44.0879 66.2325 43.6875 65.9864 43.4219C65.7442 43.1562 65.3711 43.0234 64.8672 43.0234C64.3907 43.0234 64.0098 43.1152 63.7246 43.2988C63.4434 43.4785 63.2403 43.7441 63.1153 44.0957C62.9942 44.4473 62.9336 44.877 62.9336 45.3848V48.7422H61.961V39.625H62.9336ZM74.8575 45.5195C74.8575 46.0469 74.7891 46.5176 74.6524 46.9316C74.5157 47.3457 74.3184 47.6953 74.0606 47.9805C73.8028 48.2656 73.4903 48.4844 73.1231 48.6367C72.7598 48.7852 72.3477 48.8594 71.8867 48.8594C71.4571 48.8594 71.0625 48.7852 70.7032 48.6367C70.3477 48.4844 70.0391 48.2656 69.7774 47.9805C69.5196 47.6953 69.3184 47.3457 69.1739 46.9316C69.0332 46.5176 68.9629 46.0469 68.9629 45.5195C68.9629 44.8164 69.0821 44.2188 69.3203 43.7266C69.5586 43.2305 69.8985 42.8535 70.3399 42.5957C70.7852 42.334 71.3145 42.2031 71.9278 42.2031C72.5137 42.2031 73.0254 42.334 73.4629 42.5957C73.9043 42.8574 74.2461 43.2363 74.4883 43.7324C74.7344 44.2246 74.8575 44.8203 74.8575 45.5195ZM69.9707 45.5195C69.9707 46.0352 70.0391 46.4824 70.1758 46.8613C70.3125 47.2402 70.5235 47.5332 70.8086 47.7402C71.0938 47.9473 71.461 48.0508 71.9102 48.0508C72.3555 48.0508 72.7207 47.9473 73.0059 47.7402C73.295 47.5332 73.5078 47.2402 73.6446 46.8613C73.7813 46.4824 73.8496 46.0352 73.8496 45.5195C73.8496 45.0078 73.7813 44.5664 73.6446 44.1953C73.5078 43.8203 73.2969 43.5312 73.0117 43.3281C72.7266 43.125 72.3575 43.0234 71.9043 43.0234C71.2364 43.0234 70.7461 43.2441 70.4336 43.6855C70.125 44.127 69.9707 44.7383 69.9707 45.5195Z" fill="#2C3E50"/>
<rect x="50.8844" y="0.742188" width="16.88" height="17" rx="8.44" fill="#2C3E50"/>
<path d="M62.4862 9.45898C62.4862 10.1504 62.4315 10.7676 62.3221 11.3105C62.2166 11.8535 62.0448 12.3145 61.8065 12.6934C61.5721 13.0723 61.2635 13.3613 60.8807 13.5605C60.4979 13.7598 60.0331 13.8594 59.4862 13.8594C58.7987 13.8594 58.2342 13.6855 57.7928 13.3379C57.3514 12.9863 57.0252 12.4824 56.8143 11.8262C56.6034 11.166 56.4979 10.377 56.4979 9.45898C56.4979 8.5332 56.5936 7.74219 56.785 7.08594C56.9803 6.42578 57.2967 5.91992 57.7342 5.56836C58.1717 5.2168 58.7557 5.04102 59.4862 5.04102C60.1698 5.04102 60.7323 5.2168 61.1737 5.56836C61.619 5.91602 61.9491 6.41992 62.1639 7.08008C62.3788 7.73633 62.4862 8.5293 62.4862 9.45898ZM58.2967 9.45898C58.2967 10.1113 58.3319 10.6562 58.4022 11.0938C58.4764 11.5273 58.5995 11.8535 58.7713 12.0723C58.9432 12.291 59.1815 12.4004 59.4862 12.4004C59.787 12.4004 60.0233 12.293 60.1952 12.0781C60.3709 11.8594 60.4959 11.5332 60.5702 11.0996C60.6444 10.6621 60.6815 10.1152 60.6815 9.45898C60.6815 8.80664 60.6444 8.26172 60.5702 7.82422C60.4959 7.38672 60.3709 7.05859 60.1952 6.83984C60.0233 6.61719 59.787 6.50586 59.4862 6.50586C59.1815 6.50586 58.9432 6.61719 58.7713 6.83984C58.5995 7.05859 58.4764 7.38672 58.4022 7.82422C58.3319 8.26172 58.2967 8.80664 58.2967 9.45898Z" fill="white"/>
<defs>
<clipPath id="clip0_80_246">
<rect width="28.5" height="24" fill="white" transform="translate(23.5044 5.74219)"/>
</clipPath>
</defs>
</svg>
