<svg width="198" height="61" viewBox="0 0 198 61" fill="none" xmlns="http://www.w3.org/2000/svg">
<path d="M74.3171 42.2356V28.3183H68.8283V25.0869H83.7722V28.3183H78.2834V42.2356H74.3171Z" fill="#051B44"/>
<path d="M89.8501 39.0509H99.1828V42.2356H85.9071V25.0869H98.8678V28.2717H89.8501V39.0509ZM89.5585 31.9931H97.812V35.0787H89.5585V31.9931Z" fill="#051B44"/>
<path d="M110.551 42.5274C109.227 42.5274 107.996 42.3116 106.865 41.88C105.727 41.4483 104.747 40.83 103.913 40.0309C103.079 39.2318 102.432 38.2927 101.965 37.2136C101.498 36.1346 101.265 34.9505 101.265 33.6614C101.265 32.3723 101.498 31.1883 101.965 30.1092C102.432 29.0301 103.085 28.091 103.925 27.2919C104.765 26.4928 105.751 25.8745 106.876 25.4429C108.002 25.0112 109.239 24.7954 110.574 24.7954C112.062 24.7954 113.403 25.0521 114.605 25.5654C115.807 26.0787 116.816 26.8369 117.632 27.8285L115.083 30.1792C114.494 29.5084 113.841 29.0068 113.123 28.6743C112.406 28.3418 111.619 28.1727 110.773 28.1727C109.974 28.1727 109.239 28.301 108.568 28.5635C107.897 28.8259 107.32 29.1993 106.83 29.6892C106.34 30.1792 105.961 30.7566 105.692 31.4274C105.424 32.0982 105.29 32.839 105.29 33.6556C105.29 34.4722 105.424 35.213 105.692 35.8837C105.961 36.5545 106.34 37.132 106.83 37.6219C107.32 38.1119 107.897 38.491 108.568 38.7477C109.239 39.0102 109.974 39.1385 110.773 39.1385C111.624 39.1385 112.406 38.9693 113.123 38.6369C113.841 38.3044 114.494 37.7911 115.083 37.1087L117.632 39.4593C116.816 40.4567 115.807 41.215 114.605 41.74C113.403 42.2649 112.05 42.5216 110.551 42.5216V42.5274Z" fill="#051B44"/>
<path d="M120.304 42.2356V25.0869H123.587L133.708 37.4352H132.115V25.0869H136.035V42.2356H132.774L122.631 29.8874H124.223V42.2356H120.304Z" fill="#051B44"/>
<path d="M148.424 42.5274C147.071 42.5274 145.817 42.3058 144.662 41.8683C143.513 41.425 142.515 40.8067 141.675 40.0076C140.836 39.2085 140.182 38.2694 139.716 37.1903C139.249 36.1112 139.016 34.9388 139.016 33.6614C139.016 32.384 139.249 31.2116 139.716 30.1325C140.182 29.0534 140.836 28.1143 141.687 27.3152C142.539 26.5161 143.53 25.892 144.674 25.4545C145.817 25.0112 147.059 24.7954 148.395 24.7954C149.731 24.7954 150.996 25.0171 152.134 25.4545C153.271 25.8978 154.257 26.5161 155.097 27.3152C155.937 28.1143 156.596 29.0534 157.068 30.1208C157.541 31.1883 157.78 32.3723 157.78 33.6614C157.78 34.9505 157.541 36.1171 157.068 37.202C156.596 38.2869 155.937 39.226 155.097 40.0193C154.257 40.8125 153.265 41.4308 152.134 41.8683C151.002 42.3058 149.76 42.5274 148.424 42.5274ZM148.401 39.1443C149.171 39.1443 149.877 39.016 150.518 38.7535C151.166 38.491 151.731 38.1177 152.221 37.6278C152.711 37.1378 153.09 36.5604 153.359 35.8896C153.627 35.2188 153.761 34.478 153.761 33.6614C153.761 32.8448 153.627 32.104 153.359 31.4332C153.09 30.7625 152.711 30.185 152.233 29.695C151.755 29.2051 151.183 28.8318 150.53 28.5693C149.877 28.3068 149.165 28.1785 148.401 28.1785C147.637 28.1785 146.925 28.3068 146.283 28.5693C145.642 28.8318 145.07 29.2051 144.58 29.695C144.09 30.185 143.711 30.7625 143.443 31.4332C143.175 32.104 143.04 32.8448 143.04 33.6614C143.04 34.478 143.175 35.2013 143.443 35.8779C143.711 36.5545 144.09 37.1378 144.569 37.6278C145.053 38.1177 145.619 38.4969 146.272 38.7535C146.925 39.016 147.637 39.1443 148.401 39.1443Z" fill="#051B44"/>
<path d="M161.531 42.2356V25.0869H163.345V42.2356H161.531ZM163.1 37.9718L163.024 35.7669L173.412 25.0869H175.495L167.923 33.0255L166.897 34.1279L163.1 37.9718ZM173.855 42.2356L166.459 33.7079L167.684 32.3839L176.014 42.2298H173.855V42.2356Z" fill="#051B44"/>
<path d="M178.948 42.2356V25.0869H180.762V42.2356H178.948Z" fill="#051B44"/>
<path d="M189.68 42.2356V26.656H183.655V25.0869H197.52V26.656H191.494V42.2356H189.68Z" fill="#051B44"/>
<path d="M71.6167 52.1113V58.475H70.5784V52.1113H71.6167Z" fill="#00A3E2"/>
<path d="M78.0383 52.1113V58.475H77.1167L74.4161 54.1412H74.3694V58.475H73.3312V52.1113H74.2586L76.9534 56.451H77.0059V52.1113H78.0383Z" fill="#00A3E2"/>
<path d="M84.8749 55.296C84.8749 55.9784 84.7582 56.5675 84.5307 57.0575C84.3032 57.5475 83.9883 57.9208 83.5916 58.1774C83.195 58.4341 82.7458 58.5682 82.2442 58.5682C81.7426 58.5682 81.2935 58.4399 80.8968 58.1774C80.5002 57.9149 80.1852 57.5416 79.9577 57.0575C79.7302 56.5675 79.6136 55.9842 79.6136 55.3018C79.6136 54.6194 79.7302 54.0302 79.9577 53.5403C80.191 53.0503 80.5002 52.677 80.8968 52.4204C81.2935 52.1637 81.7426 52.0295 82.2442 52.0295C82.7458 52.0295 83.195 52.1579 83.5916 52.4204C83.9883 52.677 84.3032 53.0503 84.5307 53.5403C84.7582 54.0302 84.8749 54.6135 84.8749 55.3018V55.296ZM83.8308 55.296C83.8308 54.8118 83.7608 54.4035 83.6266 54.0711C83.4925 53.7386 83.3058 53.4878 83.0667 53.3186C82.8275 53.1495 82.5534 53.062 82.2442 53.062C81.9351 53.062 81.6551 53.1495 81.4159 53.3186C81.1768 53.4878 80.9901 53.7386 80.856 54.0711C80.7218 54.4035 80.6518 54.8118 80.6518 55.296C80.6518 55.7801 80.7218 56.1884 80.856 56.5209C80.9901 56.8533 81.1768 57.1041 81.4159 57.2733C81.6551 57.4425 81.9292 57.53 82.2442 57.53C82.5592 57.53 82.8275 57.4425 83.0667 57.2733C83.3058 57.1041 83.4925 56.8533 83.6266 56.5209C83.7608 56.1884 83.8308 55.7801 83.8308 55.296Z" fill="#00A3E2"/>
<path d="M86.9106 52.1113L88.4038 57.1218H88.4621L89.9495 52.1113H91.0928L89.0746 58.475H87.7914L85.7732 52.1113H86.9106Z" fill="#00A3E2"/>
<path d="M92.4984 58.475H91.3902L93.4084 52.1113H94.6916L96.7098 58.475H95.6015L94.0733 53.4179H94.0266L92.4984 58.475ZM92.5334 55.9785H95.5549V56.906H92.5334V55.9785Z" fill="#00A3E2"/>
<path d="M102.689 54.2574H101.645C101.615 54.0649 101.557 53.8958 101.481 53.7499C101.405 53.6041 101.3 53.4758 101.184 53.3708C101.061 53.2658 100.927 53.19 100.775 53.1375C100.624 53.085 100.46 53.0558 100.285 53.0558C99.9764 53.0558 99.6964 53.1433 99.4572 53.3125C99.2181 53.4875 99.0256 53.7383 98.8914 54.0707C98.7573 54.4032 98.6873 54.8115 98.6873 55.2898C98.6873 55.7681 98.7573 56.1881 98.8914 56.5206C99.0256 56.853 99.2181 57.1038 99.4572 57.273C99.6964 57.4422 99.9705 57.5238 100.28 57.5238C100.449 57.5238 100.612 57.5005 100.764 57.448C100.915 57.3955 101.05 57.3197 101.172 57.2205C101.295 57.1213 101.394 56.9989 101.475 56.853C101.557 56.7072 101.615 56.5439 101.645 56.3572H102.689C102.648 56.6664 102.566 56.9522 102.438 57.2147C102.31 57.483 102.14 57.7163 101.93 57.9146C101.72 58.1188 101.475 58.2763 101.195 58.3871C100.915 58.4979 100.606 58.5562 100.262 58.5562C99.7605 58.5562 99.3114 58.4279 98.9148 58.1654C98.5181 57.903 98.209 57.5355 97.9815 57.0455C97.754 56.5556 97.6432 55.9723 97.6432 55.2898C97.6432 54.6074 97.7598 54.0183 97.9873 53.5283C98.2148 53.0383 98.5298 52.665 98.9264 52.4084C99.3231 52.1517 99.7664 52.0176 100.268 52.0176C100.589 52.0176 100.88 52.0701 101.155 52.1692C101.429 52.2684 101.674 52.4142 101.89 52.6067C102.105 52.7992 102.28 53.0325 102.42 53.3066C102.56 53.5808 102.648 53.8958 102.694 54.2516L102.689 54.2574ZM99.9705 58.4688H100.519L100.472 58.7312C100.647 58.7604 100.793 58.8362 100.915 58.9587C101.038 59.0812 101.096 59.2562 101.096 59.4837C101.096 59.7753 100.98 60.0145 100.74 60.1894C100.501 60.3703 100.163 60.4578 99.7197 60.4578L99.708 59.9036C99.9239 59.9036 100.093 59.8745 100.221 59.8103C100.35 59.7461 100.414 59.647 100.414 59.5128C100.414 59.3787 100.373 59.2854 100.28 59.2212C100.186 59.1629 100.041 59.1162 99.8422 59.0929L99.9647 58.4688H99.9705Z" fill="#00A3E2"/>
<path d="M104.893 58.4746H103.785L105.803 52.1109H107.087L109.105 58.4746H107.996L106.468 53.4175H106.422L104.893 58.4746ZM104.928 55.9781H107.95V56.9055H104.928V55.9781ZM105.622 51.4809L105.01 51.4634C105.01 51.096 105.098 50.8043 105.267 50.5943C105.442 50.3844 105.652 50.2794 105.902 50.2794C106.025 50.2794 106.13 50.3027 106.217 50.3494C106.311 50.396 106.392 50.4427 106.462 50.501C106.538 50.5593 106.608 50.6118 106.684 50.6527C106.754 50.6993 106.836 50.7168 106.923 50.7168C107.028 50.7168 107.116 50.6702 107.174 50.5827C107.238 50.4952 107.267 50.3785 107.273 50.2385L107.874 50.2677C107.874 50.641 107.786 50.9268 107.611 51.131C107.437 51.3351 107.232 51.4401 106.982 51.4401C106.847 51.4401 106.731 51.4168 106.643 51.3701C106.55 51.3234 106.474 51.2768 106.404 51.2185C106.334 51.1601 106.27 51.1076 106.2 51.0668C106.13 51.0201 106.048 51.0026 105.955 51.0026C105.856 51.0026 105.774 51.0493 105.716 51.131C105.652 51.2185 105.622 51.3293 105.622 51.4751V51.4809Z" fill="#00A3E2"/>
<path d="M115.299 55.296C115.299 55.9784 115.182 56.5675 114.955 57.0575C114.727 57.5475 114.412 57.9208 114.016 58.1774C113.619 58.4341 113.17 58.5682 112.668 58.5682C112.167 58.5682 111.718 58.4399 111.321 58.1774C110.924 57.9149 110.609 57.5416 110.382 57.0575C110.154 56.5734 110.038 55.9842 110.038 55.3018C110.038 54.6194 110.154 54.0302 110.382 53.5403C110.609 53.0503 110.924 52.677 111.321 52.4204C111.718 52.1637 112.167 52.0295 112.668 52.0295C113.17 52.0295 113.619 52.1579 114.016 52.4204C114.412 52.677 114.727 53.0503 114.955 53.5403C115.182 54.0302 115.299 54.6135 115.299 55.3018V55.296ZM114.255 55.296C114.255 54.8118 114.185 54.4035 114.051 54.0711C113.917 53.7386 113.73 53.4878 113.491 53.3186C113.252 53.1495 112.978 53.062 112.668 53.062C112.359 53.062 112.085 53.1495 111.846 53.3186C111.607 53.4878 111.42 53.7386 111.286 54.0711C111.152 54.4035 111.082 54.8118 111.082 55.296C111.082 55.7801 111.152 56.1884 111.286 56.5209C111.42 56.8533 111.607 57.1041 111.846 57.2733C112.085 57.4425 112.359 57.53 112.668 57.53C112.978 57.53 113.252 57.4425 113.491 57.2733C113.73 57.1041 113.917 56.8533 114.051 56.5209C114.185 56.1884 114.255 55.7801 114.255 55.296Z" fill="#00A3E2"/>
<path d="M121.085 58.5682C120.694 58.5682 120.356 58.4866 120.076 58.3291C119.796 58.1716 119.58 57.9616 119.429 57.6933C119.277 57.425 119.201 57.1217 119.201 56.7833C119.201 56.5267 119.248 56.305 119.341 56.1067C119.435 55.9084 119.569 55.7276 119.732 55.5584C119.901 55.3893 120.094 55.226 120.309 55.0568L121.324 54.2869C121.476 54.1819 121.587 54.0652 121.663 53.9427C121.739 53.8202 121.779 53.6802 121.779 53.5228C121.779 53.3886 121.727 53.2545 121.622 53.132C121.517 53.0095 121.377 52.9511 121.196 52.9511C121.074 52.9511 120.969 52.9803 120.875 53.0445C120.782 53.1086 120.712 53.1903 120.659 53.2894C120.607 53.3886 120.584 53.4994 120.584 53.6102C120.584 53.7502 120.619 53.8902 120.689 54.0302C120.759 54.176 120.852 54.3219 120.963 54.4735C121.074 54.6252 121.196 54.7885 121.324 54.9635L124.013 58.4632H122.917L120.683 55.6226C120.519 55.4068 120.356 55.1968 120.204 54.9868C120.053 54.7768 119.924 54.561 119.825 54.3335C119.726 54.1061 119.68 53.8611 119.68 53.5986C119.68 53.3011 119.744 53.027 119.866 52.7936C119.989 52.5545 120.164 52.3679 120.391 52.2337C120.619 52.0995 120.881 52.0295 121.179 52.0295C121.476 52.0295 121.739 52.0937 121.954 52.2279C122.17 52.362 122.339 52.537 122.456 52.7587C122.573 52.9803 122.631 53.2195 122.631 53.4761C122.631 53.7736 122.561 54.0477 122.427 54.281C122.293 54.5202 122.106 54.7302 121.867 54.9226L120.712 55.8618C120.519 56.0134 120.385 56.1709 120.304 56.3284C120.222 56.4859 120.181 56.62 120.181 56.725C120.181 56.8942 120.222 57.0458 120.298 57.18C120.374 57.3141 120.484 57.425 120.619 57.5066C120.759 57.5883 120.922 57.6291 121.109 57.6291C121.313 57.6291 121.517 57.5766 121.715 57.4775C121.914 57.3725 122.094 57.2266 122.263 57.04C122.427 56.8475 122.555 56.62 122.654 56.3576C122.753 56.0892 122.8 55.7976 122.8 55.4709H123.669C123.669 55.8734 123.628 56.2234 123.547 56.5209C123.465 56.8184 123.366 57.0692 123.238 57.2733C123.109 57.4775 122.975 57.6408 122.835 57.7633C122.788 57.7983 122.748 57.8333 122.707 57.8683C122.666 57.9033 122.625 57.9383 122.578 57.9733C122.38 58.1774 122.141 58.3232 121.873 58.4224C121.604 58.5215 121.336 58.5682 121.079 58.5682H121.085Z" fill="#00A3E2"/>
<path d="M127.519 53.0796V52.1113H132.086V53.0796H130.319V58.475H129.292V53.0796H127.519Z" fill="#00A3E2"/>
<path d="M133.556 58.475V52.1113H137.283V53.0796H134.594V54.8061H137.091V55.7744H134.594V57.5126H137.307V58.4808H133.562L133.556 58.475Z" fill="#00A3E2"/>
<path d="M143.834 54.2574H142.79C142.76 54.0649 142.702 53.8958 142.626 53.7499C142.545 53.6041 142.445 53.4758 142.329 53.3708C142.212 53.2658 142.072 53.19 141.921 53.1375C141.769 53.085 141.606 53.0558 141.431 53.0558C141.121 53.0558 140.841 53.1433 140.602 53.3125C140.363 53.4875 140.176 53.7383 140.037 54.0707C139.897 54.4032 139.832 54.8115 139.832 55.2898C139.832 55.7681 139.902 56.1881 140.037 56.5206C140.176 56.853 140.363 57.1038 140.602 57.273C140.841 57.4422 141.116 57.5238 141.425 57.5238C141.594 57.5238 141.757 57.5005 141.909 57.448C142.061 57.3955 142.195 57.3197 142.317 57.2205C142.44 57.1213 142.539 56.9989 142.62 56.853C142.702 56.7072 142.76 56.5439 142.79 56.3572H143.834C143.793 56.6664 143.711 56.9522 143.583 57.2147C143.455 57.483 143.285 57.7163 143.075 57.9146C142.865 58.1188 142.62 58.2763 142.34 58.3871C142.061 58.4979 141.751 58.5562 141.407 58.5562C140.906 58.5562 140.456 58.4279 140.06 58.1654C139.663 57.903 139.354 57.5355 139.127 57.0455C138.899 56.5556 138.788 55.9723 138.788 55.2898C138.788 54.6074 138.905 54.0183 139.132 53.5283C139.36 53.0383 139.675 52.665 140.072 52.4084C140.468 52.1517 140.911 52.0176 141.413 52.0176C141.734 52.0176 142.026 52.0701 142.3 52.1692C142.574 52.2684 142.819 52.4142 143.035 52.6067C143.25 52.7992 143.425 53.0325 143.565 53.3066C143.705 53.5808 143.793 53.8958 143.84 54.2516L143.834 54.2574Z" fill="#00A3E2"/>
<path d="M150.087 52.1113V58.475H149.165L146.465 54.1412H146.418V58.475H145.38V52.1113H146.307L149.002 56.451H149.054V52.1113H150.087Z" fill="#00A3E2"/>
<path d="M156.917 55.296C156.917 55.9784 156.801 56.5675 156.573 57.0575C156.346 57.5475 156.031 57.9208 155.634 58.1774C155.237 58.4341 154.788 58.5682 154.287 58.5682C153.785 58.5682 153.336 58.4399 152.939 58.1774C152.543 57.9149 152.228 57.5416 152 57.0575C151.767 56.5675 151.656 55.9842 151.656 55.3018C151.656 54.6194 151.773 54.0302 152 53.5403C152.228 53.0503 152.543 52.677 152.939 52.4204C153.336 52.1637 153.785 52.0295 154.287 52.0295C154.788 52.0295 155.237 52.1579 155.634 52.4204C156.031 52.677 156.346 53.0503 156.573 53.5403C156.801 54.0302 156.917 54.6135 156.917 55.3018V55.296ZM155.873 55.296C155.873 54.8118 155.803 54.4035 155.669 54.0711C155.535 53.7386 155.348 53.4878 155.109 53.3186C154.87 53.1495 154.596 53.062 154.287 53.062C153.977 53.062 153.703 53.1495 153.464 53.3186C153.225 53.4878 153.038 53.7386 152.904 54.0711C152.77 54.4035 152.7 54.8118 152.7 55.296C152.7 55.7801 152.77 56.1884 152.904 56.5209C153.038 56.8533 153.225 57.1041 153.464 57.2733C153.703 57.4425 153.977 57.53 154.287 57.53C154.596 57.53 154.87 57.4425 155.109 57.2733C155.348 57.1041 155.535 56.8533 155.669 56.5209C155.803 56.1884 155.873 55.7801 155.873 55.296Z" fill="#00A3E2"/>
<path d="M158.492 58.475V52.1113H159.53V57.5068H162.05V58.475H158.492Z" fill="#00A3E2"/>
<path d="M168.437 55.296C168.437 55.9784 168.32 56.5675 168.093 57.0575C167.865 57.5475 167.55 57.9208 167.154 58.1774C166.757 58.4341 166.308 58.5682 165.806 58.5682C165.305 58.5682 164.856 58.4399 164.459 58.1774C164.062 57.9149 163.747 57.5416 163.52 57.0575C163.287 56.5675 163.176 55.9842 163.176 55.3018C163.176 54.6194 163.292 54.0302 163.52 53.5403C163.747 53.0503 164.062 52.677 164.459 52.4204C164.856 52.1637 165.305 52.0295 165.806 52.0295C166.308 52.0295 166.757 52.1579 167.154 52.4204C167.55 52.677 167.865 53.0503 168.093 53.5403C168.32 54.0302 168.437 54.6135 168.437 55.3018V55.296ZM167.393 55.296C167.393 54.8118 167.323 54.4035 167.189 54.0711C167.055 53.7386 166.868 53.4878 166.629 53.3186C166.39 53.1495 166.116 53.062 165.806 53.062C165.497 53.062 165.223 53.1495 164.984 53.3186C164.745 53.4878 164.558 53.7386 164.424 54.0711C164.29 54.4035 164.22 54.8118 164.22 55.296C164.22 55.7801 164.29 56.1884 164.424 56.5209C164.558 56.8533 164.745 57.1041 164.984 57.2733C165.223 57.4425 165.497 57.53 165.806 57.53C166.116 57.53 166.39 57.4425 166.629 57.2733C166.868 57.1041 167.055 56.8533 167.189 56.5209C167.323 56.1884 167.393 55.7801 167.393 55.296Z" fill="#00A3E2"/>
<path d="M173.844 54.1407C173.797 53.9716 173.733 53.8199 173.652 53.6916C173.57 53.5575 173.471 53.4408 173.36 53.3475C173.249 53.2542 173.115 53.1783 172.975 53.1317C172.835 53.085 172.672 53.0617 172.503 53.0617C172.193 53.0617 171.919 53.1491 171.68 53.3183C171.441 53.4875 171.248 53.7441 171.114 54.0766C170.98 54.4091 170.91 54.8115 170.91 55.2898C170.91 55.7681 170.98 56.1764 171.114 56.5089C171.248 56.8414 171.441 57.098 171.68 57.2672C171.925 57.4422 172.205 57.5238 172.526 57.5238C172.817 57.5238 173.068 57.4597 173.284 57.3372C173.5 57.2147 173.663 57.0339 173.78 56.8064C173.897 56.5789 173.955 56.3106 173.955 56.0014L174.188 56.0423H172.631V55.144H174.952V55.9081C174.952 56.4506 174.847 56.923 174.637 57.3197C174.427 57.7163 174.142 58.0255 173.774 58.2354C173.407 58.4513 172.987 58.5562 172.514 58.5562C171.989 58.5562 171.523 58.4221 171.126 58.1596C170.729 57.8971 170.42 57.518 170.193 57.0339C169.971 56.5439 169.86 55.9664 169.86 55.2957C169.86 54.7824 169.924 54.3216 170.059 53.9191C170.193 53.5166 170.373 53.1725 170.613 52.8867C170.852 52.6009 171.126 52.3909 171.447 52.2392C171.768 52.0876 172.112 52.0176 172.485 52.0176C172.8 52.0176 173.097 52.0701 173.372 52.1692C173.646 52.2684 173.891 52.42 174.101 52.6067C174.311 52.7933 174.492 53.0208 174.626 53.2775C174.766 53.5341 174.853 53.8199 174.9 54.1349H173.844V54.1407Z" fill="#00A3E2"/>
<path d="M177.583 52.1113V58.475H176.545V52.1113H177.583Z" fill="#00A3E2"/>
<path d="M180.033 58.475H178.925L180.943 52.1113H182.226L184.244 58.475H183.136L181.608 53.4179H181.561L180.033 58.475ZM180.068 55.9785H183.09V56.906H180.068V55.9785Z" fill="#00A3E2"/>
<path d="M49.3142 25.4804L46.0362 19.8123L49.3142 14.1394H55.8606L59.1386 19.8123L55.8606 25.4804H49.3142Z" fill="#59CBE9"/>
<path d="M49.3142 25.4804L46.0362 19.8123L49.3142 14.1394H55.8606L59.1386 19.8123L55.8606 25.4804H49.3142Z" fill="url(#paint0_linear_59_398)"/>
<path d="M24.8083 12.6369L22.1446 8.03428L24.8083 3.43164H30.1165L32.7754 8.03428L30.1165 12.6369H24.8083Z" fill="#59CBE9"/>
<path d="M24.8083 12.6369L22.1446 8.03428L24.8083 3.43164H30.1165L32.7754 8.03428L30.1165 12.6369H24.8083Z" fill="url(#paint1_linear_59_398)"/>
<path d="M57.0459 4.84741L55.6445 2.42371L57.0459 0H59.844L61.2454 2.42371L59.844 4.84741H57.0459Z" fill="#6BE0FF"/>
<path d="M44.2219 8.01512L41.9758 4.12279L44.2219 0.230469H48.7094L50.9555 4.12279L48.7094 8.01512H44.2219Z" fill="#6BE0FF"/>
<path d="M34.0903 26.4353C34.0903 25.7058 33.5 25.1155 32.7705 25.1155C32.0409 25.1155 31.4506 25.7058 31.4506 26.4353C31.4506 27.1648 32.0409 27.7552 32.7705 27.7552C33.5 27.7552 34.0903 27.1648 34.0903 26.4353Z" fill="url(#paint2_linear_59_398)"/>
<path d="M37.9442 40.0032L42.7533 47.9031L45.9449 48.7813L54.0031 34.8246L51.1235 29.8381H46.4152L40.5839 19.7401L42.9404 15.6606L40.5071 11.4419H35.9765L32.7608 17.0092H22.1685L18.9577 11.4419H13.5007L8.82609 19.5433L14.9646 29.0749C15.0174 29.0749 15.0654 29.0606 15.1229 29.0606C16.9419 29.0606 18.4202 30.5388 18.4202 32.3577C18.4202 34.1767 16.9419 35.655 15.1229 35.655C13.304 35.655 11.8257 34.1767 11.8257 32.3577C11.8257 31.561 12.1233 30.8363 12.5936 30.2652L7.33827 22.1158L-6.10352e-05 34.8246L7.0839 47.0968L21.9621 37.3107L23.8195 30.5388L24.2563 30.2652C24.2563 30.2652 29.3677 27.088 29.5356 26.9872C29.502 26.8048 29.478 26.6224 29.478 26.4353C29.478 24.6163 30.9563 23.1381 32.7752 23.1381C34.5942 23.1381 36.0725 24.6163 36.0725 26.4353C36.0725 28.2542 34.5942 29.7325 32.7752 29.7325C32.0985 29.7325 31.4698 29.5261 30.9467 29.1757C30.7499 29.3341 30.5435 29.4685 30.3755 29.5693L26.0896 32.2282L24.2323 38.9905L8.40374 49.3813L12.0753 55.7453L24.6594 47.7879C24.6594 47.7351 24.645 47.6871 24.645 47.6391C24.645 45.8201 26.128 44.3419 27.9422 44.3419C29.7564 44.3419 31.2394 45.8201 31.2394 47.6391C31.2394 49.4581 29.7612 50.9363 27.9422 50.9363C27.1407 50.9363 26.416 50.6387 25.8449 50.1636L13.3951 58.0346L13.4959 58.2122H40.5023L44.5818 51.1427L41.0591 50.1732L40.7855 49.7364C40.7855 49.7364 35.4581 41.0063 35.3573 40.8479C35.1798 40.8767 34.9926 40.9055 34.8054 40.9055C32.9864 40.9055 31.5082 39.4273 31.5082 37.6083C31.5082 35.7893 32.9864 34.3111 34.8054 34.3111C36.6244 34.3111 38.1026 35.7893 38.1026 37.6083C38.1026 38.285 37.8962 38.9137 37.5459 39.4369C37.7043 39.6337 37.8386 39.84 37.9394 40.0032H37.9442Z" fill="url(#paint3_linear_59_398)"/>
<path d="M29.262 47.6436C29.262 46.9141 28.6717 46.3237 27.9422 46.3237C27.2127 46.3237 26.6223 46.9141 26.6223 47.6436C26.6223 48.3731 27.2127 48.9634 27.9422 48.9634C28.6717 48.9634 29.262 48.3731 29.262 47.6436Z" fill="url(#paint4_linear_59_398)"/>
<path d="M16.4333 32.3528C16.4333 31.6281 15.843 31.033 15.1135 31.033C14.384 31.033 13.7937 31.6233 13.7937 32.3528C13.7937 33.0823 14.384 33.6726 15.1135 33.6726C15.843 33.6726 16.4333 33.0823 16.4333 32.3528Z" fill="url(#paint5_linear_59_398)"/>
<path d="M33.4855 37.6084C33.4855 38.3379 34.0807 38.9283 34.8054 38.9283C35.5301 38.9283 36.1252 38.3379 36.1252 37.6084C36.1252 36.8789 35.5301 36.2886 34.8054 36.2886C34.0807 36.2886 33.4855 36.8789 33.4855 37.6084Z" fill="url(#paint6_linear_59_398)"/>
<defs>
<linearGradient id="paint0_linear_59_398" x1="52.5874" y1="14.1394" x2="52.5874" y2="25.4804" gradientUnits="userSpaceOnUse">
<stop stop-color="#6BE0FF"/>
<stop offset="1" stop-color="#00A3E2" stop-opacity="0.87"/>
</linearGradient>
<linearGradient id="paint1_linear_59_398" x1="27.46" y1="3.43164" x2="27.46" y2="12.6369" gradientUnits="userSpaceOnUse">
<stop stop-color="#6BE0FF"/>
<stop offset="1" stop-color="#00A3E2" stop-opacity="0.53"/>
</linearGradient>
<linearGradient id="paint2_linear_59_398" x1="32.7705" y1="2.08309" x2="32.7705" y2="54.4591" gradientUnits="userSpaceOnUse">
<stop stop-color="#59CBE9"/>
<stop offset="0.51" stop-color="#00A3E2"/>
<stop offset="1" stop-color="#0072CE"/>
</linearGradient>
<linearGradient id="paint3_linear_59_398" x1="26.9967" y1="2.08783" x2="26.9967" y2="54.4591" gradientUnits="userSpaceOnUse">
<stop stop-color="#59CBE9"/>
<stop offset="0.51" stop-color="#00A3E2"/>
<stop offset="1" stop-color="#0072CE"/>
</linearGradient>
<linearGradient id="paint4_linear_59_398" x1="27.9422" y1="2.09712" x2="27.9422" y2="54.4539" gradientUnits="userSpaceOnUse">
<stop stop-color="#8FFFFF"/>
<stop offset="0.51" stop-color="#60A8FB"/>
<stop offset="1" stop-color="#3762FA"/>
</linearGradient>
<linearGradient id="paint5_linear_59_398" x1="15.1135" y1="2.08289" x2="15.1135" y2="54.4589" gradientUnits="userSpaceOnUse">
<stop stop-color="#8FFFFF"/>
<stop offset="0.51" stop-color="#60A8FB"/>
<stop offset="1" stop-color="#3762FA"/>
</linearGradient>
<linearGradient id="paint6_linear_59_398" x1="34.8054" y1="2.09274" x2="34.8054" y2="54.4544" gradientUnits="userSpaceOnUse">
<stop stop-color="#8FFFFF"/>
<stop offset="0.51" stop-color="#60A8FB"/>
<stop offset="1" stop-color="#3762FA"/>
</linearGradient>
</defs>
</svg>
