<svg width="354" height="46" viewBox="0 0 354 46" fill="none" xmlns="http://www.w3.org/2000/svg">
<rect x="1.25439" y="1.24219" width="351.5" height="44" rx="9.5" fill="white"/>
<g clip-path="url(#clip0_59_301)">
<text fill="#2C3E50" xml:space="preserve" style="white-space: pre" font-family="Open Sans" font-size="14" letter-spacing="0em"><tspan x="13.7544" y="28.6733">O que voc&#xea; est&#xe1; buscando?</tspan></text>
</g>
<g clip-path="url(#clip1_59_301)">
<path d="M340.452 33.0344L333.945 26.5277C333.889 26.4712 333.822 26.4265 333.749 26.3961C333.675 26.3658 333.596 26.3505 333.516 26.3511H332.996C334.792 24.4163 335.789 21.8734 335.786 19.2337C335.786 13.4385 331.09 8.74219 325.294 8.74219C319.499 8.74219 314.803 13.4385 314.803 19.2337C314.803 25.0298 319.499 29.7253 325.294 29.7253C328.043 29.7253 330.54 28.6664 332.412 26.941V27.4558C332.412 27.6175 332.477 27.7683 332.588 27.8841L339.095 34.3908C339.151 34.4472 339.218 34.4921 339.292 34.5226C339.365 34.5532 339.444 34.569 339.524 34.569C339.604 34.569 339.683 34.5532 339.756 34.5226C339.83 34.4921 339.897 34.4472 339.953 34.3908L340.452 33.8917C340.508 33.8355 340.553 33.7687 340.584 33.6951C340.614 33.6216 340.63 33.5427 340.63 33.4631C340.63 33.3835 340.614 33.3046 340.584 33.2311C340.553 33.1575 340.508 33.0907 340.452 33.0344ZM325.294 28.1107C324.128 28.1116 322.974 27.8826 321.896 27.4368C320.819 26.9911 319.84 26.3374 319.015 25.513C318.191 24.6886 317.537 23.7098 317.091 22.6325C316.645 21.5552 316.416 20.4005 316.416 19.2346C316.416 14.3275 320.386 10.3568 325.294 10.3568C326.46 10.3558 327.615 10.5847 328.693 11.0305C329.77 11.4762 330.749 12.13 331.574 12.9545C332.399 13.779 333.053 14.7579 333.498 15.8354C333.944 16.9128 334.174 18.0676 334.173 19.2337C334.174 20.4 333.945 21.5549 333.499 22.6326C333.053 23.7102 332.399 24.6894 331.575 25.5141C330.75 26.3387 329.771 26.9927 328.693 27.4385C327.615 27.8843 326.46 28.1133 325.294 28.1123V28.1107Z" fill="#2C3E50"/>
</g>
<rect x="1.25439" y="1.24219" width="351.5" height="44" rx="9.5" stroke="#2C3E50"/>
<defs>
<clipPath id="clip0_59_301">
<rect width="304.5" height="19" fill="white" transform="translate(13.7544 13.7422)"/>
</clipPath>
<clipPath id="clip1_59_301">
<rect width="26.66" height="26.66" fill="white" transform="translate(314.594 8.74219)"/>
</clipPath>
</defs>
</svg>
