<svg width="75" height="48" viewBox="0 0 75 48" fill="none" xmlns="http://www.w3.org/2000/svg">
<g clip-path="url(#clip0_80_244)">
<path d="M48.7002 8.48412H42.8937V3.45186C42.8937 1.9809 41.655 0.742188 40.1841 0.742188H26.2486C25.5299 0.742188 24.8407 1.02767 24.3326 1.53583C23.8244 2.044 23.5389 2.73321 23.5389 3.45186V11.1938C23.5389 12.6648 24.7776 13.9035 26.2486 13.9035H28.4937V16.6132C28.4937 16.768 28.5712 16.9228 28.726 16.9228L28.8808 17.0003L29.1131 16.9228L33.6034 14.0583V18.9357C33.6034 20.4067 34.8421 21.6454 36.3131 21.6454H41.0357L45.8357 24.6648L46.0679 24.7422L46.2228 24.6648C46.3776 24.5873 46.455 24.4325 46.455 24.3551V21.6454H48.7002C50.1712 21.6454 51.4099 20.4067 51.4099 18.9357V11.1938C51.4099 9.72283 50.1712 8.48412 48.7002 8.48412ZM29.2679 15.9164V13.5164C29.2679 13.2841 29.1131 13.1293 28.8808 13.1293H26.2486C25.7353 13.1293 25.243 12.9254 24.88 12.5624C24.517 12.1994 24.3131 11.7071 24.3131 11.1938V3.45186C24.3131 2.36799 25.1647 1.51638 26.2486 1.51638H40.1841C41.2679 1.51638 42.1196 2.36799 42.1196 3.45186V11.1938C42.1196 12.2777 41.2679 13.1293 40.1841 13.1293H33.7583L33.526 13.2067L29.2679 15.9164ZM50.6357 18.9357C50.6357 20.0196 49.7841 20.8712 48.7002 20.8712H46.0679C45.8357 20.8712 45.6808 21.0261 45.6808 21.2583V23.6583L41.3454 20.9486L41.1905 20.8712H36.3131C35.7998 20.8712 35.3075 20.6673 34.9445 20.3043C34.5815 19.9414 34.3776 19.4491 34.3776 18.9357V13.9035H40.1841C41.655 13.9035 42.8937 12.6648 42.8937 11.1938V9.25832H48.7002C49.7841 9.25832 50.6357 10.1099 50.6357 11.1938V18.9357Z" fill="#2C3E50"/>
</g>
<path d="M7.64326 43.7422L6.58858 41.0234H3.15498L2.10616 43.7422H1.09834L4.44991 35.1406H5.34639L8.67451 43.7422H7.64326ZM6.28975 40.1387L5.2878 37.4375C5.26436 37.3672 5.2253 37.252 5.17061 37.0918C5.11983 36.9316 5.06709 36.7656 5.01241 36.5938C4.95772 36.4219 4.9128 36.2832 4.87764 36.1777C4.83858 36.3379 4.79561 36.498 4.74873 36.6582C4.70576 36.8145 4.6628 36.9609 4.61983 37.0977C4.57686 37.2305 4.53975 37.3438 4.5085 37.4375L3.48897 40.1387H6.28975ZM11.7917 43.0625C11.9519 43.0625 12.1159 43.0488 12.2839 43.0215C12.4519 42.9941 12.5886 42.9609 12.694 42.9219V43.6777C12.5808 43.7285 12.4226 43.7715 12.2194 43.8066C12.0202 43.8418 11.8249 43.8594 11.6335 43.8594C11.2937 43.8594 10.9851 43.8008 10.7077 43.6836C10.4304 43.5625 10.2077 43.3594 10.0397 43.0742C9.87569 42.7891 9.79366 42.3945 9.79366 41.8906V38.082H8.87959V37.6074L9.79951 37.2266L10.1862 35.832H10.7722V37.3203H12.653V38.082H10.7722V41.8613C10.7722 42.2637 10.864 42.5645 11.0476 42.7637C11.2351 42.9629 11.4831 43.0625 11.7917 43.0625ZM16.4675 37.2031C17.0144 37.2031 17.4831 37.3242 17.8737 37.5664C18.2644 37.8086 18.5632 38.1484 18.7702 38.5859C18.9772 39.0195 19.0808 39.5273 19.0808 40.1094V40.7129H14.6452C14.6569 41.4668 14.8444 42.041 15.2077 42.4355C15.571 42.8301 16.0827 43.0273 16.7429 43.0273C17.1491 43.0273 17.5085 42.9902 17.821 42.916C18.1335 42.8418 18.4577 42.7324 18.7937 42.5879V43.4434C18.4694 43.5879 18.1472 43.6934 17.8269 43.7598C17.5105 43.8262 17.1355 43.8594 16.7019 43.8594C16.0847 43.8594 15.5456 43.7344 15.0847 43.4844C14.6276 43.2305 14.2722 42.8594 14.0183 42.3711C13.7644 41.8828 13.6374 41.2852 13.6374 40.5781C13.6374 39.8867 13.7526 39.2891 13.9831 38.7852C14.2175 38.2773 14.5456 37.8867 14.9675 37.6133C15.3933 37.3398 15.8933 37.2031 16.4675 37.2031ZM16.4558 38C15.9362 38 15.5222 38.1699 15.2136 38.5098C14.905 38.8496 14.7214 39.3242 14.6628 39.9336H18.0612C18.0573 39.5508 17.9968 39.2148 17.8796 38.9258C17.7663 38.6328 17.5925 38.4062 17.3581 38.2461C17.1237 38.082 16.823 38 16.4558 38ZM23.7741 37.2031C24.5358 37.2031 25.112 37.3906 25.5026 37.7656C25.8933 38.1367 26.0886 38.7344 26.0886 39.5586V43.7422H25.1276V39.623C25.1276 39.0879 25.0046 38.6875 24.7585 38.4219C24.5163 38.1562 24.1433 38.0234 23.6394 38.0234C22.9284 38.0234 22.4284 38.2246 22.1394 38.627C21.8503 39.0293 21.7058 39.6133 21.7058 40.3789V43.7422H20.7331V37.3203H21.5183L21.6647 38.2461H21.7175C21.8542 38.0195 22.028 37.8301 22.239 37.6777C22.4499 37.5215 22.6862 37.4043 22.948 37.3262C23.2097 37.2441 23.4851 37.2031 23.7741 37.2031ZM30.3776 43.8594C29.5651 43.8594 28.9206 43.582 28.444 43.0273C27.9714 42.4727 27.7351 41.6484 27.7351 40.5547C27.7351 39.4492 27.9772 38.6152 28.4616 38.0527C28.946 37.4863 29.5905 37.2031 30.3952 37.2031C30.7351 37.2031 31.0319 37.248 31.2858 37.3379C31.5397 37.4277 31.7585 37.5488 31.9421 37.7012C32.1257 37.8496 32.28 38.0195 32.405 38.2109H32.4753C32.4597 38.0898 32.444 37.9238 32.4284 37.7129C32.4128 37.502 32.405 37.3301 32.405 37.1973V34.625H33.3776V43.7422H32.5925L32.446 42.8281H32.405C32.2839 43.0195 32.1296 43.1934 31.9421 43.3496C31.7585 43.5059 31.5378 43.6309 31.28 43.7246C31.0261 43.8145 30.7253 43.8594 30.3776 43.8594ZM30.53 43.0508C31.2175 43.0508 31.7038 42.8555 31.989 42.4648C32.2741 42.0742 32.4167 41.4941 32.4167 40.7246V40.5488C32.4167 39.7324 32.28 39.1055 32.0065 38.668C31.737 38.2305 31.2448 38.0117 30.53 38.0117C29.9323 38.0117 29.4851 38.2422 29.1882 38.7031C28.8913 39.1602 28.7429 39.7852 28.7429 40.5781C28.7429 41.3672 28.8894 41.9766 29.1823 42.4062C29.4792 42.8359 29.9284 43.0508 30.53 43.0508ZM36.4128 37.3203V43.7422H35.4401V37.3203H36.4128ZM35.9382 34.918C36.0983 34.918 36.2351 34.9707 36.3483 35.0762C36.4655 35.1777 36.5241 35.3379 36.5241 35.5566C36.5241 35.7715 36.4655 35.9316 36.3483 36.0371C36.2351 36.1426 36.0983 36.1953 35.9382 36.1953C35.7702 36.1953 35.6296 36.1426 35.5163 36.0371C35.4069 35.9316 35.3522 35.7715 35.3522 35.5566C35.3522 35.3379 35.4069 35.1777 35.5163 35.0762C35.6296 34.9707 35.7702 34.918 35.9382 34.918ZM45.448 37.2031C46.155 37.2031 46.6882 37.3887 47.0476 37.7598C47.4069 38.127 47.5866 38.7188 47.5866 39.5352V43.7422H46.6257V39.582C46.6257 39.0625 46.5124 38.6738 46.2858 38.416C46.0632 38.1543 45.7312 38.0234 45.2897 38.0234C44.6687 38.0234 44.2175 38.2031 43.9362 38.5625C43.655 38.9219 43.5144 39.4512 43.5144 40.1504V43.7422H42.5476V39.582C42.5476 39.2344 42.4968 38.9453 42.3952 38.7148C42.2976 38.4844 42.1491 38.3125 41.9499 38.1992C41.7546 38.082 41.5065 38.0234 41.2058 38.0234C40.78 38.0234 40.4382 38.1113 40.1804 38.2871C39.9226 38.4629 39.7351 38.7246 39.6179 39.0723C39.5046 39.416 39.448 39.8398 39.448 40.3438V43.7422H38.4753V37.3203H39.2605L39.4069 38.2285H39.4597C39.5886 38.0059 39.7507 37.8184 39.946 37.666C40.1413 37.5137 40.3601 37.3984 40.6022 37.3203C40.8444 37.2422 41.1022 37.2031 41.3757 37.2031C41.864 37.2031 42.2722 37.2949 42.6003 37.4785C42.9323 37.6582 43.1726 37.9336 43.321 38.3047H43.3737C43.5847 37.9336 43.8737 37.6582 44.2409 37.4785C44.6081 37.2949 45.0105 37.2031 45.448 37.2031ZM52.0573 37.2031C52.6042 37.2031 53.073 37.3242 53.4636 37.5664C53.8542 37.8086 54.153 38.1484 54.3601 38.5859C54.5671 39.0195 54.6706 39.5273 54.6706 40.1094V40.7129H50.2351C50.2468 41.4668 50.4343 42.041 50.7976 42.4355C51.1608 42.8301 51.6726 43.0273 52.3327 43.0273C52.739 43.0273 53.0983 42.9902 53.4108 42.916C53.7233 42.8418 54.0476 42.7324 54.3835 42.5879V43.4434C54.0593 43.5879 53.737 43.6934 53.4167 43.7598C53.1003 43.8262 52.7253 43.8594 52.2917 43.8594C51.6745 43.8594 51.1355 43.7344 50.6745 43.4844C50.2175 43.2305 49.862 42.8594 49.6081 42.3711C49.3542 41.8828 49.2272 41.2852 49.2272 40.5781C49.2272 39.8867 49.3425 39.2891 49.573 38.7852C49.8073 38.2773 50.1355 37.8867 50.5573 37.6133C50.9831 37.3398 51.4831 37.2031 52.0573 37.2031ZM52.0456 38C51.5261 38 51.112 38.1699 50.8034 38.5098C50.4948 38.8496 50.3112 39.3242 50.2526 39.9336H53.6511C53.6472 39.5508 53.5866 39.2148 53.4694 38.9258C53.3562 38.6328 53.1823 38.4062 52.948 38.2461C52.7136 38.082 52.4128 38 52.0456 38ZM59.364 37.2031C60.1257 37.2031 60.7019 37.3906 61.0925 37.7656C61.4831 38.1367 61.6784 38.7344 61.6784 39.5586V43.7422H60.7175V39.623C60.7175 39.0879 60.5944 38.6875 60.3483 38.4219C60.1062 38.1562 59.7331 38.0234 59.2292 38.0234C58.5183 38.0234 58.0183 38.2246 57.7292 38.627C57.4401 39.0293 57.2956 39.6133 57.2956 40.3789V43.7422H56.323V37.3203H57.1081L57.2546 38.2461H57.3073C57.444 38.0195 57.6179 37.8301 57.8288 37.6777C58.0397 37.5215 58.2761 37.4043 58.5378 37.3262C58.7995 37.2441 59.0749 37.2031 59.364 37.2031ZM65.7565 43.0625C65.9167 43.0625 66.0808 43.0488 66.2487 43.0215C66.4167 42.9941 66.5534 42.9609 66.6589 42.9219V43.6777C66.5456 43.7285 66.3874 43.7715 66.1843 43.8066C65.9851 43.8418 65.7897 43.8594 65.5983 43.8594C65.2585 43.8594 64.9499 43.8008 64.6726 43.6836C64.3952 43.5625 64.1726 43.3594 64.0046 43.0742C63.8405 42.7891 63.7585 42.3945 63.7585 41.8906V38.082H62.8444V37.6074L63.7644 37.2266L64.1511 35.832H64.737V37.3203H66.6179V38.082H64.737V41.8613C64.737 42.2637 64.8288 42.5645 65.0124 42.7637C65.1999 42.9629 65.448 43.0625 65.7565 43.0625ZM73.4968 40.5195C73.4968 41.0469 73.4284 41.5176 73.2917 41.9316C73.155 42.3457 72.9577 42.6953 72.6999 42.9805C72.4421 43.2656 72.1296 43.4844 71.7624 43.6367C71.3991 43.7852 70.987 43.8594 70.5261 43.8594C70.0964 43.8594 69.7019 43.7852 69.3425 43.6367C68.987 43.4844 68.6784 43.2656 68.4167 42.9805C68.1589 42.6953 67.9577 42.3457 67.8132 41.9316C67.6726 41.5176 67.6022 41.0469 67.6022 40.5195C67.6022 39.8164 67.7214 39.2188 67.9597 38.7266C68.198 38.2305 68.5378 37.8535 68.9792 37.5957C69.4245 37.334 69.9538 37.2031 70.5671 37.2031C71.153 37.2031 71.6647 37.334 72.1022 37.5957C72.5437 37.8574 72.8855 38.2363 73.1276 38.7324C73.3737 39.2246 73.4968 39.8203 73.4968 40.5195ZM68.6101 40.5195C68.6101 41.0352 68.6784 41.4824 68.8151 41.8613C68.9519 42.2402 69.1628 42.5332 69.448 42.7402C69.7331 42.9473 70.1003 43.0508 70.5495 43.0508C70.9948 43.0508 71.3601 42.9473 71.6452 42.7402C71.9343 42.5332 72.1472 42.2402 72.2839 41.8613C72.4206 41.4824 72.489 41.0352 72.489 40.5195C72.489 40.0078 72.4206 39.5664 72.2839 39.1953C72.1472 38.8203 71.9362 38.5312 71.6511 38.3281C71.3659 38.125 70.9968 38.0234 70.5437 38.0234C69.8757 38.0234 69.3855 38.2441 69.073 38.6855C68.7644 39.127 68.6101 39.7383 68.6101 40.5195Z" fill="#2C3E50"/>
<defs>
<clipPath id="clip0_80_244">
<rect width="30" height="24" fill="white" transform="translate(22.4744 0.742188)"/>
</clipPath>
</defs>
</svg>
