<svg width="13" height="13" viewBox="0 0 13 13" fill="none" xmlns="http://www.w3.org/2000/svg">
<g clip-path="url(#clip0_59_297)">
<path d="M6.88181 3.89579C5.36013 3.89579 4.13274 5.12318 4.13274 6.64486C4.13274 8.16654 5.36013 9.39393 6.88181 9.39393C8.40349 9.39393 9.63088 8.16654 9.63088 6.64486C9.63088 5.12318 8.40349 3.89579 6.88181 3.89579ZM6.88181 8.43212C5.89846 8.43212 5.09456 7.6306 5.09456 6.64486C5.09456 5.65912 5.89607 4.8576 6.88181 4.8576C7.86755 4.8576 8.66907 5.65912 8.66907 6.64486C8.66907 7.6306 7.86516 8.43212 6.88181 8.43212ZM10.3845 3.78334C10.3845 4.13983 10.0974 4.42455 9.74334 4.42455C9.38684 4.42455 9.10212 4.13744 9.10212 3.78334C9.10212 3.42924 9.38923 3.14213 9.74334 3.14213C10.0974 3.14213 10.3845 3.42924 10.3845 3.78334ZM12.2053 4.43412C12.1646 3.57518 11.9684 2.81434 11.3392 2.18749C10.7123 1.56063 9.95149 1.36444 9.09255 1.32137C8.2073 1.27113 5.55393 1.27113 4.66868 1.32137C3.81213 1.36205 3.05129 1.55824 2.42205 2.1851C1.7928 2.81195 1.599 3.57279 1.55593 4.43173C1.50569 5.31698 1.50569 7.97035 1.55593 8.8556C1.59661 9.71454 1.7928 10.4754 2.42205 11.1022C3.05129 11.7291 3.80974 11.9253 4.66868 11.9683C5.55393 12.0186 8.2073 12.0186 9.09255 11.9683C9.95149 11.9277 10.7123 11.7315 11.3392 11.1022C11.966 10.4754 12.1622 9.71454 12.2053 8.8556C12.2555 7.97035 12.2555 5.31937 12.2053 4.43412ZM11.0616 9.80546C10.875 10.2744 10.5137 10.6357 10.0424 10.8247C9.3366 11.1046 7.66179 11.04 6.88181 11.04C6.10183 11.04 4.42463 11.1022 3.72122 10.8247C3.25227 10.6381 2.89099 10.2768 2.70198 9.80546C2.42205 9.09965 2.48665 7.42484 2.48665 6.64486C2.48665 5.86488 2.42444 4.18768 2.70198 3.48427C2.8886 3.01532 3.24988 2.65404 3.72122 2.46503C4.42703 2.1851 6.10183 2.24969 6.88181 2.24969C7.66179 2.24969 9.33899 2.18749 10.0424 2.46503C10.5114 2.65165 10.8726 3.01293 11.0616 3.48427C11.3416 4.19008 11.277 5.86488 11.277 6.64486C11.277 7.42484 11.3416 9.10204 11.0616 9.80546Z" fill="#2C3E50"/>
</g>
<defs>
<clipPath id="clip0_59_297">
<rect width="12.25" height="12.25" fill="white" transform="translate(0.754395 0.522217)"/>
</clipPath>
</defs>
</svg>
