<svg width="384" height="231" viewBox="0 0 384 231" fill="none" xmlns="http://www.w3.org/2000/svg">
<text fill="#2C3E50" xml:space="preserve" style="white-space: pre" font-family="Open Sans" font-size="34" font-weight="bold" letter-spacing="0em"><tspan x="0" y="36.1899">Contato</tspan></text>
<text fill="#34495E" xml:space="preserve" style="white-space: pre" font-family="Open Sans" font-size="14" letter-spacing="0em"><tspan x="34" y="90.9312">+55 51 99999.9999</tspan></text>
<path d="M17.3826 79.5388C15.8557 78.0081 13.8223 77.1663 11.6614 77.1663C7.201 77.1663 3.5715 80.7962 3.5715 85.2571C3.5715 86.6821 3.94319 88.0743 4.65015 89.3025L3.50226 93.4938L7.79135 92.3676C8.97203 93.0127 10.3021 93.3516 11.6577 93.3516H11.6614C16.1181 93.3516 19.8278 89.7217 19.8278 85.2608C19.8278 83.0996 18.9095 81.0696 17.3826 79.5388ZM11.6614 91.9886C10.4515 91.9886 9.2672 91.6642 8.23593 91.0519L7.99177 90.9061L5.4482 91.5731L6.126 89.0912L5.96566 88.836C5.2915 87.7646 4.93803 86.5291 4.93803 85.2571C4.93803 81.5506 7.95533 78.533 11.665 78.533C13.4615 78.533 15.1488 79.2327 16.4169 80.5047C17.685 81.7766 18.4649 83.464 18.4612 85.2608C18.4612 88.9709 15.3674 91.9886 11.6614 91.9886ZM15.3492 86.9518C15.1488 86.8498 14.1539 86.3614 13.9681 86.2958C13.7822 86.2266 13.6474 86.1938 13.5126 86.3979C13.3777 86.602 12.9915 87.0539 12.8712 87.1924C12.7546 87.3272 12.6343 87.3454 12.4339 87.2434C11.2459 86.6493 10.4661 86.1828 9.68263 84.838C9.47491 84.4808 9.89034 84.5063 10.2766 83.7337C10.3422 83.5989 10.3094 83.4822 10.2584 83.3802C10.2074 83.2781 9.80288 82.2832 9.63525 81.8786C9.47127 81.485 9.30364 81.5397 9.17974 81.5324C9.06313 81.5251 8.9283 81.5251 8.79347 81.5251C8.65864 81.5251 8.43999 81.5761 8.25415 81.7766C8.0683 81.9807 7.54719 82.4691 7.54719 83.464C7.54719 84.459 8.27237 85.4211 8.37076 85.556C8.47279 85.6908 9.79559 87.7318 11.8253 88.6101C13.1081 89.1641 13.611 89.2114 14.2523 89.1167C14.6422 89.0584 15.4476 88.6283 15.6152 88.1545C15.7828 87.6807 15.7828 87.2762 15.7318 87.1924C15.6844 87.1013 15.5496 87.0502 15.3492 86.9518Z" fill="#34495E"/>
<text fill="#34495E" xml:space="preserve" style="white-space: pre" font-family="Open Sans" font-size="14" letter-spacing="0em"><tspan x="34" y="129.931">(51) 3333-3333</tspan></text>
<g clip-path="url(#clip0_119_1822)">
<path d="M20.1118 115.878L16.4385 115.029C16.1783 114.969 15.9051 115.002 15.6667 115.122C15.4283 115.243 15.2397 115.443 15.134 115.689L13.4395 119.643C13.3429 119.87 13.3223 120.122 13.3808 120.362C13.4392 120.602 13.5736 120.816 13.7638 120.973L15.7279 122.581C14.4847 125.109 12.4397 127.154 9.91198 128.397L8.30494 126.433C8.14783 126.243 7.93345 126.108 7.69375 126.05C7.45406 125.991 7.20189 126.012 6.97485 126.109L3.02466 127.803C2.51813 128.022 2.24118 128.569 2.36508 129.104L3.21051 132.774C3.26763 133.026 3.40882 133.251 3.61084 133.412C3.81286 133.573 4.06366 133.661 4.32196 133.66C6.51145 133.66 8.67958 133.23 10.7025 132.392C12.7254 131.554 14.5635 130.326 16.1117 128.777C17.6599 127.229 18.8879 125.391 19.7256 123.368C20.5632 121.344 20.9941 119.176 20.9936 116.986C20.9949 116.729 20.9082 116.478 20.7478 116.277C20.5874 116.075 20.363 115.935 20.1118 115.878ZM4.34382 132.494L3.50568 128.864L7.41943 127.187L9.58766 129.841C13.3629 128.069 15.4073 126.017 17.171 122.256L14.5181 120.088L16.1944 116.174L19.8239 117.012C19.8191 121.116 18.1866 125.051 15.2846 127.954C12.3825 130.856 8.44791 132.489 4.34382 132.494Z" fill="#34495E"/>
</g>
<text fill="#34495E" xml:space="preserve" style="white-space: pre" font-family="Open Sans" font-size="14" letter-spacing="0em"><tspan x="34" y="168.931">vendas@tecnokit.store</tspan></text>
<path d="M19.2447 156.333H4.08528C3.62138 156.333 3.17647 156.517 2.84844 156.845C2.52041 157.173 2.33612 157.618 2.33612 158.082L2.33612 168.578C2.33612 169.042 2.52041 169.487 2.84844 169.815C3.17647 170.143 3.62138 170.328 4.08528 170.328H19.2447C19.7086 170.328 20.1535 170.143 20.4815 169.815C20.8096 169.487 20.9938 169.042 20.9938 168.578V158.082C20.9938 157.618 20.8096 157.173 20.4815 156.845C20.1535 156.517 19.7086 156.333 19.2447 156.333ZM4.08528 157.499H19.2447C19.3993 157.499 19.5476 157.56 19.657 157.67C19.7663 157.779 19.8277 157.927 19.8277 158.082V159.591C19.0297 160.265 17.8891 161.194 14.3397 164.012C13.7239 164.5 12.5104 165.677 11.665 165.663C10.8196 165.677 9.60243 164.5 8.99022 164.012C7.14022 162.564 5.31071 161.09 3.50223 159.591V158.082C3.50223 157.927 3.56366 157.779 3.673 157.67C3.78234 157.56 3.93065 157.499 4.08528 157.499ZM19.2447 169.161H4.08528C3.93065 169.161 3.78234 169.1 3.673 168.99C3.56366 168.881 3.50223 168.733 3.50223 168.578V161.107C5.08082 162.39 6.66847 163.662 8.26505 164.923C9.01209 165.52 10.3312 166.836 11.665 166.829C12.9914 166.84 14.2997 165.535 15.0649 164.923C16.6615 163.662 18.2491 162.39 19.8277 161.107V168.578C19.8277 168.733 19.7663 168.881 19.657 168.99C19.5476 169.1 19.3993 169.161 19.2447 169.161Z" fill="#34495E"/>
<g clip-path="url(#clip1_119_1822)">
<path d="M11.665 196.499C9.73598 196.499 8.16666 198.068 8.16666 199.997C8.16666 201.927 9.73598 203.496 11.665 203.496C13.594 203.496 15.1633 201.927 15.1633 199.997C15.1633 198.068 13.594 196.499 11.665 196.499ZM11.665 202.33C10.379 202.33 9.33277 201.284 9.33277 199.997C9.33277 198.711 10.379 197.665 11.665 197.665C12.951 197.665 13.9972 198.711 13.9972 199.997C13.9972 201.284 12.951 202.33 11.665 202.33ZM11.665 193C7.80083 193 4.66833 196.133 4.66833 199.997C4.66833 202.819 5.65115 203.607 10.9459 211.284C11.2934 211.785 12.0366 211.786 12.3841 211.284C17.6788 203.607 18.6616 202.819 18.6616 199.997C18.6616 196.133 15.5291 193 11.665 193ZM11.665 210.273C6.58895 202.931 5.83444 202.348 5.83444 199.997C5.83444 198.44 6.44093 196.976 7.54217 195.874C8.64341 194.773 10.1076 194.166 11.665 194.166C13.2224 194.166 14.6865 194.773 15.7878 195.874C16.889 196.976 17.4955 198.44 17.4955 199.997C17.4955 202.348 16.7415 202.93 11.665 210.273Z" fill="#34495E"/>
</g>
<text fill="#34495E" xml:space="preserve" style="white-space: pre" font-family="Open Sans" font-size="14" letter-spacing="0em"><tspan x="34" y="207.931">Av. 20 Setembro 123, loja 00</tspan></text>
<text fill="#34495E" xml:space="preserve" style="white-space: pre" font-family="Open Sans" font-size="14" letter-spacing="0em"><tspan x="34" y="226.931">Centro - Sapiranga / RS | 93800-000</tspan></text>
<defs>
<clipPath id="clip0_119_1822">
<rect width="23.33" height="18.66" fill="white" transform="translate(0 115)"/>
</clipPath>
<clipPath id="clip1_119_1822">
<rect width="23.33" height="18.66" fill="white" transform="translate(0 193)"/>
</clipPath>
</defs>
</svg>
