<svg width="309" height="71" viewBox="0 0 309 71" fill="none" xmlns="http://www.w3.org/2000/svg">
<g clip-path="url(#clip0_96_247)">
<path d="M35.7544 0.652222C28.8321 0.652222 22.0652 2.70494 16.3095 6.55079C10.5537 10.3966 6.06769 15.8629 3.41863 22.2583C0.769559 28.6537 0.0764427 35.6911 1.42693 42.4804C2.77741 49.2697 6.11084 55.5061 11.0057 60.401C15.9005 65.2958 22.1369 68.6292 28.9262 69.9797C35.7156 71.3302 42.7529 70.6371 49.1483 67.988C55.5437 65.3389 61.01 60.8529 64.8559 55.0972C68.7017 49.3415 70.7544 42.5746 70.7544 35.6522C70.7435 26.373 67.0525 17.4769 60.4911 10.9155C53.9297 4.35411 45.0336 0.663119 35.7544 0.652222ZM35.7544 69.2797C29.1035 69.2797 22.602 67.3075 17.072 63.6124C11.542 59.9174 7.23188 54.6655 4.6867 48.5209C2.14151 42.3763 1.47558 35.6149 2.7731 29.0918C4.07062 22.5687 7.27333 16.5769 11.9762 11.874C16.6791 7.17114 22.6709 3.96844 29.194 2.67091C35.7171 1.37339 42.4785 2.03933 48.6231 4.58451C54.7677 7.12969 60.0196 11.4398 63.7146 16.9698C67.4096 22.4998 69.3819 29.0013 69.3819 35.6522C69.371 44.5674 65.8246 53.1144 59.5206 59.4184C53.2166 65.7224 44.6696 69.2688 35.7544 69.2797ZM54.4348 40.2228L52.2387 41.0189L46.0485 23.8208C45.9844 23.6477 45.8568 23.5054 45.6917 23.4228C45.5246 23.3542 45.3372 23.3542 45.1701 23.4228L27.8211 29.7365L26.2975 25.6189C26.2975 25.4542 25.323 21.7208 22.1799 21.6248C20.725 21.6248 15.4132 21.7071 15.1936 21.7071C15.0128 21.7142 14.8417 21.7911 14.7163 21.9216C14.5909 22.0521 14.5209 22.2261 14.5211 22.4071C14.5405 22.5858 14.623 22.7518 14.7539 22.8751C14.8847 22.9984 15.0552 23.0709 15.2348 23.0797C15.2348 23.0797 20.725 22.9424 22.0975 22.9973C24.1975 23.0659 24.925 25.9071 24.9524 26.0169L31.9799 45.3424C30.8939 45.7015 29.9472 46.3907 29.2719 47.3139C28.5966 48.2371 28.2266 49.3481 28.2134 50.4919C28.2002 51.6356 28.5446 52.7549 29.1984 53.6934C29.8522 54.6319 30.7828 55.3428 31.8602 55.7267C32.9376 56.1107 34.1081 56.1486 35.2081 55.8351C36.3081 55.5216 37.2827 54.8723 37.9958 53.978C38.7089 53.0837 39.1249 51.9891 39.1857 50.8469C39.2464 49.7047 38.949 48.572 38.3348 47.6071L54.9289 41.5679C55.0161 41.5392 55.0965 41.4932 55.1656 41.4328C55.2347 41.3724 55.2909 41.2988 55.3311 41.2162C55.3712 41.1337 55.3943 41.044 55.3992 40.9524C55.404 40.8607 55.3904 40.7691 55.3592 40.6828C55.328 40.5965 55.2798 40.5173 55.2175 40.45C55.1551 40.3827 55.0799 40.3285 54.9963 40.2908C54.9127 40.253 54.8223 40.2324 54.7306 40.2301C54.6389 40.2279 54.5476 40.2441 54.4623 40.2777L54.4348 40.2228ZM28.2054 31.013L36.3034 28.1032L38.4995 34.1287C38.5457 34.2625 38.6329 34.3783 38.7487 34.4596C38.8646 34.5409 39.0031 34.5836 39.1446 34.5816C39.2218 34.5947 39.3007 34.5947 39.3779 34.5816C39.549 34.5197 39.6884 34.3924 39.7657 34.2276C39.8429 34.0629 39.8515 33.8743 39.7897 33.7032L37.5936 27.6777L44.9368 25.015L50.9623 41.5679L37.374 46.5228C36.3838 45.5676 35.071 45.019 33.6956 44.9856H33.3525L28.2054 31.013ZM33.6956 54.5934C32.8812 54.5934 32.0851 54.3519 31.4079 53.8995C30.7308 53.447 30.203 52.8039 29.8914 52.0515C29.5797 51.2991 29.4982 50.4712 29.6571 49.6724C29.8159 48.8737 30.2081 48.14 30.784 47.5641C31.3598 46.9883 32.0935 46.5961 32.8923 46.4372C33.691 46.2783 34.5189 46.3599 35.2713 46.6715C36.0237 46.9832 36.6668 47.511 37.1193 48.1881C37.5717 48.8653 37.8132 49.6614 37.8132 50.4757C37.8132 51.5678 37.3794 52.6152 36.6072 53.3874C35.835 54.1596 34.7877 54.5934 33.6956 54.5934Z" fill="#34495E"/>
</g>
<text fill="#34495E" xml:space="preserve" style="white-space: pre" font-family="Open Sans" font-size="16" font-weight="bold" letter-spacing="0em"><tspan x="85.7544" y="20.8593">Frete gratis para o</tspan></text>
<text fill="#34495E" xml:space="preserve" style="white-space: pre" font-family="Open Sans" font-size="16" font-weight="bold" letter-spacing="0em"><tspan x="86" y="43.207">Vale dos Sinos</tspan></text>
<text fill="#34495E" xml:space="preserve" style="white-space: pre" font-family="Open Sans" font-size="14" letter-spacing="0em"><tspan x="85.7544" y="63.0834">Consulte cidades</tspan></text>
<defs>
<clipPath id="clip0_96_247">
<rect width="70" height="70" fill="white" transform="translate(0.754395 0.652222)"/>
</clipPath>
</defs>
</svg>
