<svg width="309" height="71" viewBox="0 0 309 71" fill="none" xmlns="http://www.w3.org/2000/svg">
<g clip-path="url(#clip0_96_245)">
<path d="M21.3426 51.7111C21.2526 51.7122 21.1634 51.6944 21.0807 51.659C20.9979 51.6235 20.9235 51.5711 20.8623 51.5052C20.7752 51.4221 20.7125 51.3168 20.6811 51.2007C20.6496 51.0845 20.6506 50.962 20.6838 50.8464L22.9211 42.6111C21.5028 40.0207 20.7823 37.1062 20.8304 34.1534C20.8784 31.2006 21.6934 28.311 23.1952 25.7682C24.6971 23.2254 26.8343 21.1168 29.397 19.6493C31.9598 18.1817 34.8601 17.4057 37.8132 17.3973C42.3311 17.4256 46.6579 19.2235 49.8654 22.4054C53.0729 25.5872 54.9055 29.8994 54.9701 34.4169C54.9507 37.3522 54.178 40.2334 52.7259 42.7844C51.2738 45.3355 49.191 47.4709 46.677 48.9862C44.163 50.5015 41.302 51.3459 38.3681 51.4385C35.4342 51.5311 32.5256 50.8687 29.9211 49.515L21.5211 51.7111C21.4625 51.7256 21.4012 51.7256 21.3426 51.7111ZM37.8132 18.7699C35.0678 18.7695 32.3705 19.4915 29.9924 20.8634C27.6143 22.2353 25.639 24.2088 24.2649 26.5856C22.8908 28.9625 22.1662 31.6591 22.1641 34.4045C22.1619 37.15 22.8821 39.8477 24.2525 42.2267C24.3007 42.3036 24.3318 42.39 24.3437 42.48C24.3555 42.5701 24.3478 42.6616 24.3211 42.7483L22.3446 50.064L29.8525 48.0875C29.9329 48.0539 30.0192 48.0366 30.1064 48.0366C30.1935 48.0366 30.2799 48.0539 30.3603 48.0875C33.6557 49.8818 37.4869 50.4298 41.1532 49.6313C44.8195 48.8328 48.0758 46.7412 50.3266 43.739C52.5774 40.7368 53.6723 37.0247 53.411 33.2816C53.1496 29.5385 51.5496 26.0145 48.9034 23.3542C47.453 21.8905 45.7249 20.731 43.8206 19.9438C41.9162 19.1566 39.8738 18.7575 37.8132 18.7699ZM42.8505 44.313C41.1296 44.208 39.4504 43.7402 37.923 42.9405C34.5358 41.2877 31.654 38.7566 29.5779 35.6111L29.4956 35.4875C28.2747 33.95 27.5475 32.0792 27.4093 30.1209C27.393 29.3113 27.5416 28.5069 27.846 27.7565C28.1504 27.0062 28.6042 26.3256 29.1799 25.7562L29.276 25.6464C29.5024 25.3968 29.7776 25.1963 30.0844 25.057C30.3913 24.9177 30.7234 24.8427 31.0603 24.8366H32.0211C32.625 24.8366 33.2289 24.9875 33.6819 26.0856L34.1623 27.2385C34.574 28.2542 35.0681 29.4346 35.1505 29.613C35.266 29.8357 35.3263 30.0828 35.3263 30.3336C35.3263 30.5844 35.266 30.8316 35.1505 31.0542C34.8352 31.7014 34.4129 32.2907 33.9015 32.7973C33.8099 32.8762 33.7312 32.9688 33.6681 33.0718C35.1132 35.5176 37.329 37.4148 39.9681 38.466C40.0304 38.5071 40.1005 38.5352 40.174 38.5483C40.627 37.9856 41.3956 37.0797 41.6426 36.6954C41.7323 36.5363 41.8528 36.3966 41.9971 36.2847C42.1414 36.1727 42.3066 36.0907 42.483 36.0434C42.6594 35.9961 42.8435 35.9845 43.0244 36.0093C43.2053 36.034 43.3795 36.0946 43.5368 36.1875C44.0446 36.366 46.5564 37.5601 46.8858 37.7797L47.0917 37.8758C47.5027 38.0118 47.8558 38.2826 48.0936 38.6444C48.3383 39.5861 48.256 40.583 47.8603 41.4718C47.4656 42.1766 46.9223 42.7872 46.2682 43.2612C45.6141 43.7352 44.8647 44.0613 44.0721 44.2169C43.6773 44.2817 43.2779 44.3139 42.8779 44.313H42.8505ZM31.0877 26.2091C30.9272 26.1979 30.7663 26.2272 30.6201 26.2944C30.4738 26.3615 30.3467 26.4643 30.2505 26.5934L30.1544 26.6895C29.7 27.1349 29.3433 27.67 29.107 28.2607C28.8707 28.8515 28.76 29.485 28.7819 30.1209C28.9105 31.7775 29.5373 33.3564 30.5799 34.6503L30.7034 34.8287C32.6447 37.7799 35.348 40.1512 38.527 41.6915C41.4093 42.9405 42.5211 43.064 43.9074 42.8444C44.4631 42.7373 44.992 42.5207 45.4632 42.2073C45.9345 41.894 46.3387 41.49 46.6525 41.0189C46.8766 40.447 46.9794 39.8347 46.9544 39.2209C46.9544 39.2895 46.7623 39.2209 46.5975 39.1111L46.2956 39.0836C45.6917 38.7817 43.4681 37.7111 43.0975 37.5601C43.0054 37.5203 42.9085 37.4927 42.8093 37.4777C42.3354 38.1859 41.8126 38.8601 41.2446 39.4954C41.0275 39.7711 40.7131 39.9532 40.3659 40.0042C40.0187 40.0553 39.6652 39.9714 39.3779 39.7699C36.4782 38.6176 34.0576 36.5117 32.5152 33.7993C32.3251 33.499 32.2589 33.1366 32.3306 32.7884C32.4022 32.4402 32.6062 32.1334 32.8995 31.9326C33.3055 31.5323 33.6439 31.0688 33.9015 30.5601C33.9015 30.5601 33.9015 30.5601 33.9015 30.3267C33.9015 30.0934 33.4485 29.2424 32.8858 27.8699L32.4054 26.7169C32.3596 26.5679 32.2797 26.4316 32.1721 26.3189H31.0877V26.2091ZM35.7544 70.6522C28.8321 70.6522 22.0652 68.5995 16.3095 64.7537C10.5537 60.9078 6.06769 55.4416 3.41863 49.0462C0.769559 42.6507 0.0764427 35.6134 1.42693 28.8241C2.77741 22.0347 6.11084 15.7983 11.0057 10.9035C15.9005 6.00866 22.1369 2.67524 28.9262 1.32475C35.7156 -0.0257301 42.7529 0.667387 49.1483 3.31645C55.5437 5.96552 61.01 10.4516 64.8559 16.2073C68.7017 21.963 70.7544 28.7299 70.7544 35.6522C70.7435 44.9315 67.0525 53.8275 60.4911 60.3889C53.9297 66.9504 45.0336 70.6413 35.7544 70.6522ZM35.7544 2.02479C29.1035 2.02479 22.602 3.997 17.072 7.69203C11.542 11.3871 7.23188 16.639 4.6867 22.7836C2.14151 28.9282 1.47558 35.6895 2.7731 42.2126C4.07062 48.7357 7.27333 54.7276 11.9762 59.4304C16.6791 64.1333 22.6709 67.336 29.194 68.6335C35.7171 69.9311 42.4785 69.2651 48.6231 66.72C54.7677 64.1748 60.0196 59.8647 63.7146 54.3346C67.4096 48.8046 69.3819 42.3031 69.3819 35.6522C69.371 26.737 65.8246 18.1901 59.5206 11.8861C53.2166 5.58206 44.6696 2.03568 35.7544 2.02479Z" fill="#34495E"/>
</g>
<text fill="#34495E" xml:space="preserve" style="white-space: pre" font-family="Open Sans" font-size="16" font-weight="bold" letter-spacing="0em"><tspan x="85.7544" y="31.8593">Or&#xe7;amento personalizado</tspan></text>
<text fill="#34495E" xml:space="preserve" style="white-space: pre" font-family="Open Sans" font-size="14" letter-spacing="0em"><tspan x="85.7544" y="52.0834">Chama no WhatsApp</tspan></text>
<defs>
<clipPath id="clip0_96_245">
<rect width="70" height="70" fill="white" transform="translate(0.754395 0.652222)"/>
</clipPath>
</defs>
</svg>
