<svg width="309" height="71" viewBox="0 0 309 71" fill="none" xmlns="http://www.w3.org/2000/svg">
<g clip-path="url(#clip0_96_244)">
<path d="M35.7544 70.6522C28.8321 70.6522 22.0652 68.5995 16.3095 64.7537C10.5537 60.9078 6.06769 55.4416 3.41863 49.0462C0.769559 42.6507 0.0764427 35.6134 1.42693 28.8241C2.77741 22.0347 6.11084 15.7983 11.0057 10.9035C15.9005 6.00866 22.1369 2.67524 28.9262 1.32475C35.7156 -0.0257301 42.7529 0.667387 49.1483 3.31645C55.5437 5.96552 61.01 10.4516 64.8559 16.2073C68.7017 21.963 70.7544 28.7299 70.7544 35.6522C70.7435 44.9315 67.0525 53.8275 60.4911 60.3889C53.9297 66.9504 45.0336 70.6413 35.7544 70.6522ZM35.7544 2.02479C29.1035 2.02479 22.602 3.997 17.072 7.69203C11.542 11.3871 7.23188 16.639 4.6867 22.7836C2.14151 28.9282 1.47558 35.6895 2.7731 42.2126C4.07062 48.7357 7.27333 54.7276 11.9762 59.4304C16.6791 64.1333 22.6709 67.336 29.194 68.6335C35.7171 69.9311 42.4785 69.2651 48.6231 66.72C54.7677 64.1748 60.0196 59.8647 63.7146 54.3346C67.4096 48.8046 69.3819 42.3031 69.3819 35.6522C69.371 26.737 65.8246 18.1901 59.5206 11.8861C53.2166 5.58206 44.6696 2.03568 35.7544 2.02479ZM49.4799 50.064H22.0289C20.7548 50.064 19.5329 49.5579 18.632 48.657C17.7311 47.7561 17.225 46.5342 17.225 45.2601V27.4169C17.225 26.1429 17.7311 24.921 18.632 24.0201C19.5329 23.1191 20.7548 22.613 22.0289 22.613H49.4799C50.754 22.613 51.9759 23.1191 52.8768 24.0201C53.7777 24.921 54.2838 26.1429 54.2838 27.4169V45.2601C54.2838 46.5342 53.7777 47.7561 52.8768 48.657C51.9759 49.5579 50.754 50.064 49.4799 50.064ZM22.0289 23.9856C21.1189 23.9856 20.2461 24.3471 19.6026 24.9906C18.9591 25.6341 18.5975 26.5069 18.5975 27.4169V45.2601C18.5975 46.1701 18.9591 47.0429 19.6026 47.6864C20.2461 48.3299 21.1189 48.6915 22.0289 48.6915H49.4799C50.39 48.6915 51.2627 48.3299 51.9062 47.6864C52.5498 47.0429 52.9113 46.1701 52.9113 45.2601V27.4169C52.9113 26.5069 52.5498 25.6341 51.9062 24.9906C51.2627 24.3471 50.39 23.9856 49.4799 23.9856H22.0289ZM30.9505 43.8875C30.9505 43.7055 30.8782 43.531 30.7495 43.4023C30.6208 43.2736 30.4462 43.2013 30.2642 43.2013H23.4015C23.2195 43.2013 23.0449 43.2736 22.9162 43.4023C22.7875 43.531 22.7152 43.7055 22.7152 43.8875C22.7152 44.0695 22.7875 44.2441 22.9162 44.3728C23.0449 44.5015 23.2195 44.5738 23.4015 44.5738H30.2642C30.4462 44.5738 30.6208 44.5015 30.7495 44.3728C30.8782 44.2441 30.9505 44.0695 30.9505 43.8875ZM40.5583 43.8875C40.5583 43.7055 40.486 43.531 40.3573 43.4023C40.2286 43.2736 40.0541 43.2013 39.8721 43.2013H33.0093C32.8273 43.2013 32.6527 43.2736 32.524 43.4023C32.3953 43.531 32.323 43.7055 32.323 43.8875C32.323 44.0695 32.3953 44.2441 32.524 44.3728C32.6527 44.5015 32.8273 44.5738 33.0093 44.5738H39.8721C40.0541 44.5738 40.2286 44.5015 40.3573 44.3728C40.486 44.2441 40.5583 44.0695 40.5583 43.8875ZM50.1662 43.8875C50.1662 43.7055 50.0939 43.531 49.9652 43.4023C49.8365 43.2736 49.6619 43.2013 49.4799 43.2013H42.6172C42.4351 43.2013 42.2606 43.2736 42.1319 43.4023C42.0032 43.531 41.9309 43.7055 41.9309 43.8875C41.9309 44.0695 42.0032 44.2441 42.1319 44.3728C42.2606 44.5015 42.4351 44.5738 42.6172 44.5738H49.4799C49.6619 44.5738 49.8365 44.5015 49.9652 44.3728C50.0939 44.2441 50.1662 44.0695 50.1662 43.8875ZM50.1662 28.7895C50.1662 28.6075 50.0939 28.4329 49.9652 28.3042C49.8365 28.1755 49.6619 28.1032 49.4799 28.1032H46.7348C46.5528 28.1032 46.3782 28.1755 46.2495 28.3042C46.1208 28.4329 46.0485 28.6075 46.0485 28.7895C46.0485 28.9715 46.1208 29.1461 46.2495 29.2748C46.3782 29.4035 46.5528 29.4758 46.7348 29.4758H49.4799C49.6619 29.4758 49.8365 29.4035 49.9652 29.2748C50.0939 29.1461 50.1662 28.9715 50.1662 28.7895ZM30.2642 36.3385H23.4015C23.2195 36.3385 23.0449 36.2662 22.9162 36.1375C22.7875 36.0088 22.7152 35.8343 22.7152 35.6522V28.7895C22.7152 28.6075 22.7875 28.4329 22.9162 28.3042C23.0449 28.1755 23.2195 28.1032 23.4015 28.1032H30.2642C30.4462 28.1032 30.6208 28.1755 30.7495 28.3042C30.8782 28.4329 30.9505 28.6075 30.9505 28.7895V35.6522C30.9505 35.8343 30.8782 36.0088 30.7495 36.1375C30.6208 36.2662 30.4462 36.3385 30.2642 36.3385ZM24.0877 34.966H29.5779V29.4758H24.0877V34.966Z" fill="#34495E"/>
</g>
<text fill="#34495E" xml:space="preserve" style="white-space: pre" font-family="Open Sans" font-size="16" font-weight="bold" letter-spacing="0em"><tspan x="85.7544" y="30.8593">Todo o site em at&#xe9;</tspan></text>
<text fill="#34495E" xml:space="preserve" style="white-space: pre" font-family="Open Sans" font-size="16" font-weight="bold" letter-spacing="0em"><tspan x="86" y="53.207">10x sem juros</tspan></text>
<defs>
<clipPath id="clip0_96_244">
<rect width="70" height="70" fill="white" transform="translate(0.754395 0.652222)"/>
</clipPath>
</defs>
</svg>
