<svg width="302" height="71" viewBox="0 0 302 71" fill="none" xmlns="http://www.w3.org/2000/svg">
<g clip-path="url(#clip0_96_246)">
<path d="M35.7544 54.1817C35.6772 54.1947 35.5983 54.1947 35.5211 54.1817C21.9328 49.3091 17.8152 32.4816 18.6387 24.5483C18.6535 24.4252 18.7006 24.3083 18.7754 24.2094C18.8501 24.1105 18.9498 24.0333 19.0642 23.9856L35.5348 17.2189C35.7019 17.1503 35.8893 17.1503 36.0564 17.2189L52.527 23.9856C52.6414 24.0333 52.741 24.1105 52.8158 24.2094C52.8905 24.3083 52.9377 24.4252 52.9524 24.5483C53.776 32.4816 49.6583 49.2542 36.0701 54.1817C35.9662 54.2057 35.8583 54.2057 35.7544 54.1817ZM19.9701 25.0562C19.3662 32.715 23.2917 48.1287 35.7544 52.8091C48.2172 48.1287 52.1426 32.715 51.5387 25.0562L35.7544 18.4954L19.9701 25.0562ZM33.3113 42.3777L46.8172 28.9816C46.9464 28.8524 47.019 28.6772 47.019 28.4944C47.019 28.3116 46.9464 28.1364 46.8172 28.0071C46.6879 27.8779 46.5127 27.8053 46.3299 27.8053C46.1471 27.8053 45.9719 27.8779 45.8426 28.0071L32.8172 40.9228L26.6681 34.8013C26.5361 34.6897 26.3668 34.6321 26.194 34.64C26.0213 34.6478 25.858 34.7206 25.7366 34.8437C25.6152 34.9668 25.5448 35.1312 25.5393 35.304C25.5339 35.4768 25.5939 35.6453 25.7074 35.7758L32.323 42.3777C32.4497 42.507 32.6224 42.581 32.8034 42.5836C32.8976 42.5852 32.9911 42.5678 33.0783 42.5324C33.1656 42.4971 33.2448 42.4444 33.3113 42.3777ZM35.7544 70.6522C28.8321 70.6522 22.0652 68.5995 16.3095 64.7537C10.5537 60.9078 6.06769 55.4416 3.41863 49.0462C0.769559 42.6507 0.0764427 35.6134 1.42693 28.8241C2.77741 22.0347 6.11084 15.7983 11.0057 10.9035C15.9005 6.00866 22.1369 2.67524 28.9262 1.32475C35.7156 -0.0257301 42.7529 0.667387 49.1483 3.31645C55.5437 5.96552 61.01 10.4516 64.8559 16.2073C68.7017 21.963 70.7544 28.7299 70.7544 35.6522C70.7435 44.9315 67.0525 53.8275 60.4911 60.3889C53.9297 66.9504 45.0336 70.6413 35.7544 70.6522ZM35.7544 2.02479C29.1035 2.02479 22.602 3.997 17.072 7.69203C11.542 11.3871 7.23188 16.639 4.6867 22.7836C2.14151 28.9282 1.47558 35.6895 2.7731 42.2126C4.07062 48.7357 7.27333 54.7276 11.9762 59.4304C16.6791 64.1333 22.6709 67.336 29.194 68.6335C35.7171 69.9311 42.4785 69.2651 48.6231 66.72C54.7677 64.1748 60.0196 59.8647 63.7146 54.3346C67.4096 48.8046 69.3819 42.3031 69.3819 35.6522C69.371 26.737 65.8246 18.1901 59.5206 11.8861C53.2166 5.58206 44.6696 2.03568 35.7544 2.02479Z" fill="#34495E"/>
</g>
<text fill="#34495E" xml:space="preserve" style="white-space: pre" font-family="Open Sans" font-size="16" font-weight="bold" letter-spacing="0em"><tspan x="85.7544" y="41.8593">Compra totalmente segura</tspan></text>
<defs>
<clipPath id="clip0_96_246">
<rect width="70" height="70" fill="white" transform="translate(0.754395 0.652222)"/>
</clipPath>
</defs>
</svg>
